<svg aria-hidden="true" style="position: absolute; width: 0; height: 0; overflow: hidden;" version="1.1" xmlns="http://www.w3.org/2000/svg" xmlns:xlink="http://www.w3.org/1999/xlink">
<defs>
<symbol id="icon-icon-on" viewBox="0 0 32 32">
<path d="M18 2.667c-6.259 0-11.333 5.074-11.333 11.333v0 4.667h-2.667c-0.001 0-0.001 0-0.002 0-0.736 0-1.333 0.597-1.333 1.333 0 0.326 0.117 0.624 0.311 0.855l-0.002-0.002 6.667 8c0.246 0.296 0.615 0.483 1.027 0.483s0.78-0.187 1.025-0.48l0.002-0.002 6.667-8c0.192-0.229 0.309-0.528 0.309-0.853 0-0.736-0.597-1.333-1.333-1.333-0.001 0-0.002 0-0.002 0h-2.667v-4.667c0-1.841 1.492-3.333 3.333-3.333s3.333 1.492 3.333 3.333v0 14c0 0.736 0.597 1.333 1.333 1.333v0h5.333c0.736 0 1.333-0.597 1.333-1.333v0-14c-0.008-6.256-5.077-11.326-11.333-11.333h-0.001z"></path>
</symbol>
</defs>
</svg>
