<svg aria-hidden="true" style="position: absolute; width: 0; height: 0; overflow: hidden;" version="1.1" xmlns="http://www.w3.org/2000/svg" xmlns:xlink="http://www.w3.org/1999/xlink">
<defs>
<symbol id="icon-npm" viewBox="0 0 32 32">
<title>npm</title>
<path fill="#cb3837" style="fill: var(--color1, #cb3837)" d="M0 9.779v10.667h8.888v1.776h7.112v-1.776h16v-10.667zM8.888 18.664h-1.776v-5.333h-1.78v5.333h-3.552v-7.108h7.108zM14.221 18.664v1.781h-3.553v-8.889h7.112v7.109h-3.559zM30.223 18.664h-1.773v-5.333h-1.781v5.333h-1.78v-5.333h-1.773v5.333h-3.561v-7.108h10.669zM14.22 13.333h1.78v3.556h-1.78z"></path>
</symbol>
<symbol id="icon-reactrouter" viewBox="0 0 32 32">
<title>reactrouter</title>
<path fill="#ca4245" style="fill: var(--color2, #ca4245)" d="M16.157 7.288c-0.008-0-0.018-0-0.027-0-0.286 0-0.562 0.039-0.825 0.112l0.022-0.005c-0.371 0.089-0.936 0.443-1.271 0.777-0.547 0.564-0.653 0.812-0.883 1.959-0.107 0.564 0.547 1.907 1.129 2.312 0.6 0.423 1.447 0.669 2.753 0.811 1.905 0.213 2.453 0.848 2.453 2.929 0 1.836-0.513 2.329-2.613 2.541-2.276 0.229-3.44 1.112-3.687 2.823-0.141 1.041 0.547 2.347 1.5 2.788 2.169 1.024 4.2-0.264 4.623-2.928 0.281-1.712 0.829-2.189 2.664-2.329 2.117-0.177 3.212-0.9 3.617-2.383 0.371-1.36-0.405-2.876-1.729-3.405-0.352-0.141-1.164-0.317-1.8-0.388-1.993-0.213-2.505-0.565-2.717-1.853-0.3-1.783-0.423-2.083-1.059-2.787-0.53-0.594-1.296-0.968-2.15-0.973h-0.001zM9.777 13.101c-0.017-0-0.038-0.001-0.058-0.001-0.214 0-0.423 0.024-0.623 0.068l0.019-0.004c-1.959 0.424-2.893 2.735-1.8 4.393 1.571 2.365 5.259 1.271 5.293-1.569 0.016-1.591-1.307-2.857-2.831-2.888zM2.785 18.92c-0.204 0.005-0.4 0.030-0.589 0.073l0.020-0.004c-2.877 0.635-2.983 4.835-0.141 5.576 0.707 0.193 0.776 0.193 1.481 0.017 1.588-0.424 2.488-1.941 2.065-3.476-0.371-1.36-1.525-2.219-2.836-2.187zM29.217 18.931c-0.311 0.003-0.636 0.077-1.045 0.216-1.853 0.636-2.488 2.789-1.307 4.448 0.743 1.059 2.613 1.411 3.76 0.688 1.888-1.165 1.817-4.076-0.124-4.995-0.507-0.248-0.884-0.361-1.284-0.357z"></path>
</symbol>
<symbol id="icon-styled-components" viewBox="0 0 32 32">
<title>styled-components</title>
<path fill="#db7093" style="fill: var(--color3, #db7093)" d="M21.619 9.016l-0.1 0.521c-0.155 0.988-0.099 1.271 0.325 1.637l0.409 0.339-0.424 1.891c-0.253 1.128-0.564 2.073-0.761 2.384-0.169 0.268-0.367 0.663-0.409 0.875-0.071 0.253-0.311 0.508-0.677 0.733-0.324 0.184-0.96 0.677-1.411 1.073-0.36 0.324-0.608 0.523-0.743 0.608l-0.44 0.348c-0.141 0.227-0.221 0.409-0.252 0.548-0.031 0.143-0.013 0.237 0.032 0.307 0.044 0.067 0.12 0.113 0.224 0.143 0.087 0.021 0.187 0.034 0.29 0.034 0.030 0 0.060-0.001 0.090-0.003l-0.004 0c0.309-0.022 0.596-0.075 0.871-0.157l-0.028 0.007c0.093-0.025 0.167-0.049 0.231-0.071 0.099-0.121 0.327-0.351 0.731-0.749 1.072-1.057 1.481-1.636 1.059-1.48-0.156 0.056-0.085-0.085 0.183-0.368 0.565-0.551 0.889-1.383 1.567-3.992 0.536-2.060 0.536-2.089 0.931-2.089 0.185 0 0.709 0.032 0.709 0.032v-2.571h-1.203zM26.737 13.236c-0.085 0-0.227 0.128-0.311 0.269-0.155 0.253 0.028 0.408 2.356 1.861 1.383 0.876 2.497 1.623 2.469 1.68-0.028 0.041-1.157 0.776-2.511 1.623-2.456 1.523-2.469 1.537-2.244 1.848 0.283 0.367 0 0.493 3.188-1.496l2.315-1.481v-1.115l-2.583-1.595c-1.396-0.875-2.609-1.58-2.68-1.595zM5.291 13.392c-0.071 0-1.284 0.72-2.68 1.58l-2.611 1.595v1.115l2.596 1.623c1.44 0.888 2.653 1.623 2.709 1.623s0.169-0.128 0.283-0.283c0.169-0.268 0.027-0.381-2.357-1.891-2.271-1.425-2.511-1.623-2.284-1.777 0.141-0.099 1.213-0.763 2.371-1.481 2.639-1.623 2.497-1.511 2.285-1.849-0.084-0.14-0.227-0.267-0.312-0.253zM16.869 13.423c-0.389-0.003-1.227 0.591-3.733 2.637-0.108 0.257-0.117 0.435-0.068 0.549 0.032 0.079 0.091 0.133 0.172 0.173 0.080 0.040 0.184 0.064 0.299 0.073 0.228 0.020 0.497-0.016 0.715-0.059l0.147-0.033c0.050-0.067 0.115-0.12 0.189-0.156l0.003-0.001c0.155-0.085 0.804-0.677 1.453-1.312 1.143-1.157 1.411-1.68 0.945-1.849-0.035-0.014-0.076-0.023-0.118-0.023-0.001 0-0.002 0-0.003 0h0zM19.797 14.227c-0.343 0.009-0.96 0.407-2.017 1.251-0.531 0.431-0.867 0.663-1.047 0.711l-0.699 0.552c-0.263 0.48-0.301 0.777-0.232 0.941 0.036 0.082 0.101 0.145 0.182 0.178l0.002 0.001c0.093 0.038 0.202 0.060 0.315 0.060 0.002 0 0.003 0 0.005 0h-0c0.277-0.003 0.542-0.044 0.794-0.119l-0.021 0.005c0.164-0.044 0.293-0.086 0.42-0.133l-0.032 0.010 0.039-0.016 0.071-0.037c0.133-0.172 0.44-0.496 0.824-0.869 1.213-1.171 1.833-2.003 1.707-2.313-0.057-0.151-0.156-0.227-0.311-0.221zM16.565 15.667c-0.099 0.011-0.32 0.181-0.719 0.531-0.576 0.509-1.204 0.803-1.421 0.672-0.015 0.005-0.067 0.016-0.118 0.026l-0.034 0.006c-0.221 0.044-0.497 0.080-0.744 0.060-0.123-0.008-0.238-0.038-0.342-0.086l0.006 0.002c-0.1-0.047-0.179-0.126-0.223-0.224l-0.001-0.003c-0.049-0.12-0.049-0.269 0.007-0.46l-0.867 0.712-1.961 1.623v2.631l6.427-5.063c-0-0.004-0-0.008-0-0.012 0-0.054 0.008-0.106 0.022-0.156l-0.001 0.004c0.049-0.179 0.047-0.269-0.031-0.263zM19.331 16.519c-0.097 0-0.26 0.137-0.52 0.413-0.353 0.377-0.909 0.743-1.204 0.817l-0.045 0.024c-0.029 0.013-0.077 0.032-0.126 0.050l-0.020 0.006c-0.080 0.027-0.184 0.059-0.304 0.091-0.24 0.065-0.539 0.125-0.805 0.119-0.132-0-0.258-0.027-0.373-0.074l0.006 0.002c-0.11-0.046-0.197-0.131-0.244-0.237l-0.001-0.003c-0.077-0.185-0.047-0.445 0.123-0.815l-5.669 4.465v1.607h2.491l5.283-4.149c0.137-0.152 0.344-0.36 0.623-0.62 0.747-0.692 0.916-0.931 0.916-1.284 0-0.275-0.031-0.413-0.128-0.412zM20.588 19.119l-0.452 0.451c-0.253 0.24-0.705 0.536-1.015 0.663l-0.061 0.027-0.004 0.007-0.013 0.013c-0.012 0.009-0.017 0.011-0.027 0.015-0.091 0.037-0.216 0.079-0.344 0.116l-0.032 0.008c-0.254 0.077-0.549 0.132-0.854 0.153l-0.013 0.001c-0.026 0.002-0.057 0.003-0.088 0.003-0.115 0-0.227-0.014-0.335-0.041l0.009 0.002c-0.12-0.027-0.222-0.096-0.29-0.191l-0.001-0.001c-0.064-0.099-0.083-0.231-0.047-0.393 0.032-0.127 0.075-0.238 0.131-0.341l-0.004 0.008-4.263 3.368h5.669l0.677-0.776c0.931-1.085 1.355-1.861 1.355-2.525z"></path>
</symbol>
</defs>
</svg>
