<svg aria-hidden="true" style="position: absolute; width: 0; height: 0; overflow: hidden;" version="1.1" xmlns="http://www.w3.org/2000/svg" xmlns:xlink="http://www.w3.org/1999/xlink">
<defs>
<symbol id="icon-briefcase" viewBox="0 0 32 32">
<path d="M13 2c-1.657 0-3 1.343-3 3v0 1h-7c-1.657 0-3 1.343-3 3v0 16c0 1.657 1.343 3 3 3v0h26c1.657 0 3-1.343 3-3v0-16c0-1.657-1.343-3-3-3v0h-7v-1c0-1.657-1.343-3-3-3v0zM13 4h6c0.552 0 1 0.448 1 1v0 1h-8v-1c0-0.552 0.448-1 1-1v0zM16.772 17.828l13.228-3.526v10.698c0 0.552-0.448 1-1 1v0h-26c-0.552 0-1-0.448-1-1v0-10.7l13.228 3.528c0.232 0.064 0.497 0.101 0.772 0.101s0.54-0.037 0.793-0.106l-0.021 0.005zM3 8h26c0.552 0 1 0.448 1 1v0 3.232l-13.742 3.664c-0.077 0.021-0.166 0.034-0.258 0.034s-0.181-0.012-0.265-0.036l0.007 0.002-13.742-3.664v-3.232c0-0.552 0.448-1 1-1v0z"></path>
</symbol>
<symbol id="icon-page" viewBox="0 0 32 32">
<path d="M24 10.667h-10.667v-2.667h10.667zM29.333 5.333v10.667l-8 8h-10.667c-1.473 0-2.667-1.194-2.667-2.667v0-16c0-1.473 1.194-2.667 2.667-2.667v0h16c1.473 0 2.667 1.194 2.667 2.667v0zM26.667 5.333h-16v16h8v-5.333c0-1.473 1.194-2.667 2.667-2.667v0h5.333zM5.333 8c-1.473 0-2.667 1.194-2.667 2.667v0 16c0 1.467 1.2 2.667 2.667 2.667h16c1.473 0 2.667-1.194 2.667-2.667v0h-18.667z"></path>
</symbol>
<symbol id="icon-nextjs" viewBox="0 0 32 32">
<path d="M16 0c-8.837 0-16 7.163-16 16v0c0 8.837 7.163 16 16 16v0c3.311-0.007 6.384-1.018 8.933-2.745l-0.056 0.036-13.123-16.956v10.059h-2.154v-12.794h2.692l14.281 18.396c3.332-2.944 5.423-7.225 5.427-11.995v-0.001c0-8.837-7.163-16-16-16v0zM20.444 9.6h2.134v12.194l-2.134-2.802zM26.489 28.080l-0.028 0.024z"></path>
</symbol>
<symbol id="icon-mui" viewBox="0 0 32 32">
<path d="M26.972 21.057c0.135-0.081 0.244-0.19 0.323-0.32l0.002-0.004c0.073-0.128 0.117-0.28 0.12-0.443v-0.001l0.016-5.144c0.003-0.164 0.047-0.316 0.122-0.449l-0.002 0.005c0.081-0.134 0.192-0.243 0.322-0.322l0.004-0.002 2.787-1.604c0.128-0.072 0.281-0.116 0.444-0.117h0c0.164 0.003 0.316 0.047 0.449 0.122l-0.005-0.002c0.135 0.081 0.244 0.19 0.323 0.32l0.002 0.004c0.073 0.128 0.117 0.281 0.119 0.443v9.353c-0.001 0.328-0.179 0.614-0.442 0.768l-0.004 0.002-10.524 6.045c-0.127 0.073-0.279 0.117-0.441 0.117s-0.314-0.043-0.446-0.119l0.004 0.002-8.259-4.723c-0.137-0.079-0.248-0.189-0.326-0.321l-0.002-0.004c-0.075-0.128-0.12-0.282-0.12-0.447v-4.716q0.001-0.009 0.011-0.005 0.013 0.004 0.011-0.007v-0.005q0-0.005 0.005-0.009l6.803-3.907c0.005-0.004 0.003-0.013-0.004-0.013l-0.005-0.003-0.001-0.005 0.013-4.623c0-0 0-0.001 0-0.001 0-0.328-0.177-0.614-0.44-0.77l-0.004-0.002c-0.128-0.075-0.281-0.119-0.445-0.119s-0.317 0.044-0.449 0.121l0.004-0.002-5.055 2.915c-0.127 0.074-0.28 0.118-0.443 0.118s-0.316-0.044-0.448-0.12l0.004 0.002-5.072-2.92c-0.127-0.074-0.28-0.118-0.443-0.118-0.49 0-0.888 0.397-0.889 0.887v8.356c-0.001 0.327-0.177 0.612-0.439 0.767l-0.004 0.002c-0.127 0.073-0.28 0.117-0.442 0.12h-0.001c-0.163-0.002-0.316-0.045-0.449-0.12l0.005 0.002-2.815-1.609c-0.137-0.079-0.248-0.189-0.326-0.321l-0.002-0.004c-0.075-0.128-0.12-0.283-0.12-0.447 0-0 0-0.001 0-0.001v0l0.025-14.604c0.002-0.49 0.399-0.887 0.889-0.887 0.162 0 0.315 0.043 0.446 0.12l-0.004-0.002 9.64 5.537c0.127 0.074 0.28 0.118 0.443 0.118s0.316-0.044 0.448-0.12l-0.004 0.002 9.637-5.537c0.128-0.072 0.281-0.116 0.444-0.117h0c0.164 0.003 0.316 0.047 0.449 0.122l-0.005-0.002c0.135 0.081 0.244 0.191 0.323 0.321l0.002 0.004c0.072 0.128 0.116 0.281 0.117 0.444v14.609c0 0.156-0.040 0.309-0.119 0.445-0.080 0.136-0.19 0.246-0.322 0.323l-0.004 0.002-5.047 2.907c-0.136 0.080-0.247 0.19-0.324 0.322l-0.002 0.004c-0.075 0.128-0.119 0.281-0.119 0.445 0 0 0 0 0 0v-0c0 0.164 0.045 0.318 0.122 0.45l-0.002-0.004c0.081 0.136 0.192 0.246 0.325 0.323l0.004 0.002 2.784 1.585c0.127 0.071 0.278 0.114 0.439 0.116h0.001c0.163-0.002 0.315-0.046 0.447-0.121l-0.005 0.002zM27.556 7.953c0 0.165 0.045 0.319 0.122 0.451l-0.002-0.004c0.081 0.136 0.193 0.246 0.326 0.323l0.004 0.002c0.126 0.072 0.277 0.114 0.437 0.114 0.168 0 0.326-0.046 0.46-0.127l-0.004 0.002 2.668-1.6c0.131-0.082 0.237-0.191 0.314-0.32l0.002-0.004c0.071-0.127 0.114-0.277 0.116-0.438v-3.259c-0.001-0.165-0.046-0.319-0.124-0.451l0.002 0.004c-0.158-0.265-0.444-0.44-0.77-0.44-0.003 0-0.006 0-0.009 0h0c-0.165 0.002-0.318 0.048-0.449 0.128l0.004-0.002-2.667 1.6c-0.131 0.082-0.238 0.191-0.315 0.32l-0.002 0.004c-0.071 0.127-0.113 0.278-0.115 0.438v0z"></path>
</symbol>
<symbol id="icon-redux" viewBox="0 0 34 32">
<path fill="#764abc" style="fill: var(--color1, #764abc)" d="M23.281 22.265c1.24-0.128 2.181-1.197 2.138-2.48s-1.112-2.309-2.394-2.309h-0.085c-1.326 0.043-2.352 1.154-2.309 2.48 0.043 0.641 0.299 1.197 0.684 1.582-1.454 2.865-3.677 4.96-7.012 6.713-2.266 1.197-4.618 1.625-6.969 1.326-1.924-0.257-3.421-1.112-4.361-2.523-1.368-2.095-1.496-4.361-0.342-6.628 0.812-1.625 2.095-2.822 2.907-3.421-0.171-0.556-0.428-1.496-0.556-2.181-6.2 4.49-5.558 10.561-3.677 13.426 1.411 2.138 4.276 3.464 7.44 3.464 0.855 0 1.71-0.086 2.565-0.299 5.473-1.069 9.621-4.319 11.972-9.151zM30.807 16.963c-3.25-3.806-8.038-5.901-13.511-5.901h-0.684c-0.385-0.77-1.197-1.283-2.095-1.283h-0.086c-1.325 0.043-2.351 1.154-2.309 2.48 0.043 1.283 1.112 2.309 2.394 2.309h0.085c0.941-0.043 1.753-0.641 2.095-1.454h0.77c3.25 0 6.328 0.941 9.107 2.779 2.138 1.411 3.677 3.25 4.532 5.473 0.727 1.796 0.684 3.549-0.086 5.046-1.197 2.266-3.207 3.506-5.858 3.506-1.71 0-3.335-0.513-4.19-0.898-0.47 0.428-1.325 1.112-1.924 1.539 1.839 0.855 3.72 1.325 5.516 1.325 4.105 0 7.141-2.266 8.295-4.532 1.24-2.48 1.154-6.756-2.052-10.39zM9.086 22.992c0.043 1.283 1.112 2.309 2.394 2.309h0.086c1.325-0.043 2.352-1.154 2.309-2.48-0.043-1.283-1.112-2.309-2.394-2.309h-0.085c-0.086 0-0.214 0-0.299 0.043-1.753-2.908-2.48-6.072-2.223-9.492 0.171-2.566 1.026-4.789 2.523-6.628 1.24-1.582 3.634-2.352 5.259-2.394 4.532-0.086 6.456 5.559 6.585 7.825 0.556 0.128 1.497 0.428 2.138 0.641-0.513-6.927-4.789-10.519-8.893-10.519-3.848 0-7.397 2.779-8.808 6.884-1.967 5.473-0.684 10.732 1.71 14.88-0.214 0.299-0.342 0.77-0.299 1.24z"></path>
</symbol>
<symbol id="icon-express" viewBox="0 0 32 32">
<path d="M31.668 24.61c-1.14 0.29-1.845 0.012-2.477-0.938-1.42-2.128-2.988-4.157-4.5-6.225-0.195-0.267-0.398-0.53-0.65-0.863-1.79 2.415-3.578 4.715-5.255 7.107-0.6 0.855-1.23 1.227-2.35 0.925l6.73-9.033-6.265-8.158c1.078-0.21 1.823-0.103 2.482 0.863 1.457 2.13 3.065 4.157 4.668 6.303 1.613-2.138 3.2-4.168 4.7-6.277 0.602-0.855 1.25-1.18 2.332-0.865-0.82 1.088-1.622 2.158-2.43 3.22-1.090 1.432-2.16 2.883-3.29 4.285-0.402 0.5-0.337 0.825 0.023 1.298 2.090 2.747 4.155 5.523 6.282 8.358zM0.333 15.435c0.18-0.902 0.3-1.822 0.55-2.707 1.5-5.357 7.65-7.585 11.875-4.265 2.475 1.947 3.090 4.692 2.967 7.787h-13.95c-0.21 5.553 3.787 8.905 8.883 7.195 1.787-0.6 2.84-2 3.367-3.75 0.268-0.878 0.71-1.015 1.535-0.765-0.422 2.19-1.38 4.020-3.38 5.165-3 1.715-7.282 1.16-9.535-1.223-1.33-1.4-1.895-3.143-2.145-5.025-0.037-0.3-0.115-0.595-0.175-0.892q0.008-0.76 0.008-1.52zM1.8 15.063h12.607c-0.082-4.015-2.582-6.867-6-6.893-3.75-0.030-6.445 2.755-6.607 6.893z"></path>
</symbol>
<symbol id="icon-git" viewBox="0 0 32 32">
<path fill="#f34f29" style="fill: var(--color2, #f34f29)" d="M31.184 14.595l-13.779-13.778c-0.793-0.793-2.080-0.793-2.874 0l-2.861 2.861 3.63 3.629c0.844-0.285 1.811-0.094 2.483 0.579 0.676 0.677 0.865 1.652 0.573 2.498l3.498 3.498c0.846-0.292 1.823-0.103 2.498 0.574 0.945 0.944 0.945 2.475 0 3.42-0.438 0.438-1.042 0.709-1.71 0.709s-1.273-0.271-1.71-0.709v0c-0.437-0.438-0.708-1.043-0.708-1.71 0-0.332 0.067-0.648 0.188-0.936l-0.006 0.016-3.262-3.262-0 8.585c0.246 0.123 0.457 0.276 0.64 0.457l-0-0c0.945 0.944 0.945 2.474 0 3.421-0.945 0.944-2.476 0.944-3.42 0-0.944-0.946-0.944-2.476 0-3.421 0.221-0.221 0.484-0.399 0.776-0.522l0.016-0.006v-8.665c-0.308-0.128-0.571-0.307-0.792-0.528l-0-0c-0.716-0.715-0.888-1.765-0.521-2.644l-3.578-3.578-9.448 9.447c-0.368 0.368-0.595 0.876-0.595 1.438s0.228 1.070 0.595 1.438l13.779 13.779c0.793 0.794 2.080 0.794 2.875 0l13.715-13.715c0.368-0.368 0.595-0.876 0.595-1.438s-0.227-1.070-0.595-1.438v0z"></path>
</symbol>
<symbol id="icon-vscode" viewBox="0 0 32 32">
<path fill="#0877b9" style="fill: var(--color3, #0877b9)" d="M8.802 31.116q-0.132 0-0.229 0.022c-0.066 0.015-0.12 0.038-0.162 0.067-0.040 0.026-0.072 0.063-0.095 0.105-0.019 0.040-0.030 0.087-0.030 0.136 0 0.002 0 0.003 0 0.005v-0q0 0.137 0.086 0.218 0.088 0.080 0.243 0.080c0.082 0.001 0.164-0.021 0.235-0.063 0.072-0.044 0.148-0.109 0.227-0.198v-0.372zM17.731 30.348q-0.123 0-0.209 0.059c-0.058 0.040-0.105 0.092-0.138 0.152l-0.001 0.002c-0.035 0.062-0.062 0.135-0.077 0.211l-0.001 0.005c-0.015 0.073-0.024 0.158-0.024 0.244 0 0.001 0 0.002 0 0.002v-0c0 0.087 0.006 0.174 0.021 0.259q0.020 0.126 0.071 0.224c0.033 0.066 0.079 0.119 0.134 0.158s0.126 0.059 0.211 0.059q0.064-0 0.122-0.017c0.047-0.014 0.088-0.034 0.125-0.059l-0.002 0.001c0.049-0.033 0.091-0.068 0.131-0.106l-0 0q0.078-0.076 0.145-0.162v-0.701q-0.131-0.162-0.253-0.247c-0.070-0.052-0.158-0.084-0.253-0.085h-0zM20.979 30.341q-0.144 0-0.247 0.051c-0.069 0.034-0.126 0.082-0.17 0.141l-0.001 0.001c-0.044 0.063-0.078 0.136-0.098 0.215l-0.001 0.005c-0.023 0.091-0.033 0.184-0.032 0.277 0 0.097 0.008 0.186 0.026 0.27s0.048 0.159 0.088 0.221q0.062 0.095 0.166 0.15 0.104 0.056 0.26 0.056 0.14-0 0.245-0.051c0.070-0.034 0.126-0.081 0.171-0.142s0.079-0.135 0.098-0.214l0.001-0.004c0.020-0.081 0.031-0.174 0.031-0.269 0-0.003 0-0.007-0-0.010v0c0-0.095-0.008-0.184-0.027-0.269-0.017-0.084-0.047-0.159-0.089-0.225l0.002 0.003c-0.042-0.063-0.097-0.114-0.162-0.15l-0.002-0.001q-0.104-0.055-0.26-0.055zM19.381 30.099q0.049 0 0.080 0.003c0.018 0.002 0.035 0.007 0.050 0.013l-0.001-0q0.015 0.006 0.025 0.018c0.005 0.007 0.007 0.017 0.008 0.026v0 1.755c0 0 0 0.001 0 0.002 0 0.009-0.003 0.017-0.008 0.024l0-0c-0.007 0.008-0.015 0.015-0.025 0.019l-0 0c-0.014 0.005-0.030 0.009-0.047 0.011l-0.001 0q-0.079 0.008-0.158 0c-0.019-0.002-0.035-0.006-0.052-0.012l0.002 0.001c-0.010-0.004-0.019-0.010-0.025-0.019l-0-0c-0.005-0.007-0.007-0.016-0.008-0.026v-1.755c0-0.010 0.003-0.019 0.008-0.026l-0 0q0.006-0.011 0.025-0.018c0.014-0.005 0.031-0.010 0.049-0.012l0.001-0q0.031-0.003 0.078-0.003zM15.214 30.099q0.047 0 0.078 0.003c0.018 0 0.035 0.005 0.051 0.012l-0.001-0c0.011 0.004 0.019 0.011 0.027 0.018l0 0c0.005 0.008 0.008 0.017 0.008 0.027 0 0 0 0 0 0v0 1.021q0 0.154 0.022 0.247c0.014 0.060 0.038 0.113 0.070 0.16l-0.001-0.002q0.045 0.065 0.116 0.101t0.165 0.036q0.12 0 0.241-0.085 0.12-0.086 0.255-0.252v-1.226c0-0 0-0 0-0.001 0-0.010 0.002-0.018 0.006-0.026l-0 0c0.007-0.008 0.016-0.015 0.026-0.018l0-0c0.015-0.007 0.032-0.011 0.050-0.012h0c0.020-0.002 0.047-0.003 0.079-0.003q0.047 0 0.078 0.003c0.018 0 0.035 0.005 0.050 0.012l-0.001-0q0.015 0.006 0.026 0.019c0.005 0.007 0.008 0.015 0.008 0.024 0 0.001-0 0.002-0 0.003v-0 1.755c0 0 0 0.001 0 0.002 0 0.009-0.002 0.017-0.006 0.024l0-0c-0.006 0.009-0.014 0.015-0.024 0.019l-0 0c-0.013 0.005-0.028 0.009-0.044 0.011l-0.001 0c-0.021 0.003-0.046 0.004-0.072 0.004s-0.050-0.002-0.074-0.004l0.003 0c-0.017-0.002-0.032-0.006-0.046-0.011l0.001 0c-0.010-0.004-0.017-0.010-0.023-0.019l-0-0c-0.003-0.006-0.005-0.014-0.005-0.022 0-0.001 0-0.003 0-0.004v0-0.233c-0.101 0.111-0.2 0.191-0.296 0.242-0.086 0.047-0.188 0.075-0.296 0.076h-0q-0.176-0-0.296-0.058c-0.078-0.037-0.143-0.091-0.193-0.158l-0.001-0.001c-0.049-0.066-0.086-0.145-0.105-0.23l-0.001-0.004c-0.021-0.089-0.032-0.191-0.032-0.296 0-0.010 0-0.019 0-0.029l-0 0.001v-1.064q-0.001-0.016 0.007-0.027c0.006-0.009 0.015-0.015 0.026-0.018l0-0c0.015-0.007 0.032-0.011 0.051-0.012h0c0.021-0.002 0.046-0.003 0.078-0.003zM6.231 30.099q0.047 0 0.078 0.003c0.018 0 0.035 0.005 0.051 0.012l-0.001-0q0.015 0.006 0.026 0.018 0.008 0.012 0.008 0.027v1.021q-0 0.154 0.023 0.247 0.022 0.093 0.067 0.158 0.047 0.065 0.117 0.101t0.163 0.036q0.122 0 0.242-0.085c0.079-0.057 0.165-0.141 0.254-0.252v-1.226q-0-0.015 0.007-0.027c0.006-0.009 0.015-0.015 0.026-0.018l0-0c0.015-0.007 0.032-0.011 0.050-0.012h0q0.039-0.003 0.079-0.003 0.045 0 0.077 0.003c0.018 0 0.034 0.005 0.050 0.012l-0.001-0c0.010 0.005 0.019 0.011 0.027 0.019l-0-0c0.005 0.008 0.008 0.017 0.008 0.027 0 0 0 0 0 0v0 1.755c0 0.001 0 0.001 0 0.002 0 0.009-0.003 0.017-0.007 0.024l0-0c-0.006 0.009-0.014 0.015-0.024 0.019l-0 0c-0.013 0.005-0.028 0.009-0.044 0.011l-0.001 0c-0.021 0.003-0.046 0.004-0.072 0.004s-0.050-0.002-0.074-0.005l0.003 0c-0.017-0.002-0.032-0.006-0.046-0.011l0.001 0q-0.017-0.008-0.021-0.019c-0.004-0.007-0.007-0.016-0.007-0.025 0-0 0-0.001 0-0.001v0-0.233c-0.099 0.111-0.199 0.191-0.296 0.242-0.090 0.049-0.192 0.075-0.296 0.076q-0.176-0-0.296-0.058c-0.078-0.038-0.144-0.092-0.194-0.158l-0.001-0.001c-0.048-0.067-0.085-0.145-0.105-0.23l-0.001-0.004c-0.020-0.090-0.032-0.194-0.032-0.301 0-0.008 0-0.016 0-0.024v0.001-1.064q-0-0.016 0.007-0.027c0.007-0.008 0.016-0.015 0.026-0.018l0-0c0.015-0.007 0.032-0.011 0.051-0.012h0q0.031-0.003 0.078-0.003v-0zM3.743 30.099c0.003-0 0.006-0 0.010-0 0.025 0 0.049 0.001 0.074 0.004l-0.003-0c0.018 0.002 0.034 0.007 0.049 0.013l-0.001-0c0.010 0.004 0.019 0.010 0.026 0.018l0 0c0.005 0.007 0.007 0.017 0.007 0.026v0 1.755c0 0 0 0.001 0 0.002 0 0.009-0.003 0.017-0.008 0.024l0-0c-0.007 0.008-0.015 0.015-0.025 0.019l-0 0c-0.014 0.005-0.030 0.009-0.047 0.011l-0.001 0q-0.079 0.008-0.158 0c-0.019-0.002-0.036-0.006-0.052-0.012l0.002 0.001c-0.010-0.004-0.019-0.010-0.025-0.019l-0-0c-0.005-0.007-0.008-0.015-0.008-0.024 0-0.001 0-0.001 0-0.002v0-1.755q0-0.014 0.007-0.026c0.006-0.009 0.015-0.015 0.025-0.018l0-0c0.014-0.005 0.031-0.010 0.049-0.012l0.001-0q0.031-0.003 0.078-0.003zM20.991 30.072q0.218 0 0.378 0.064c0.106 0.042 0.196 0.106 0.267 0.187l0.001 0.001c0.072 0.082 0.125 0.181 0.161 0.299q0.053 0.175 0.053 0.395 0 0.214-0.056 0.395c-0.037 0.12-0.094 0.224-0.169 0.313l0.001-0.001c-0.076 0.087-0.17 0.156-0.276 0.202l-0.005 0.002q-0.169 0.073-0.39 0.073-0.217-0-0.378-0.064c-0.106-0.042-0.196-0.106-0.267-0.187l-0.001-0.001c-0.071-0.083-0.127-0.183-0.159-0.292l-0.001-0.006c-0.034-0.113-0.053-0.244-0.053-0.379 0-0.007 0-0.013 0-0.020v0.001c0-0.144 0.019-0.275 0.056-0.395 0.036-0.12 0.094-0.223 0.169-0.311l-0.001 0.001c0.075-0.087 0.169-0.156 0.275-0.201l0.005-0.002c0.111-0.049 0.242-0.073 0.392-0.073zM8.704 30.072q0.19 0 0.322 0.044 0.133 0.042 0.214 0.126c0.054 0.055 0.094 0.122 0.118 0.205q0.037 0.123 0.037 0.287v1.183q0 0.024-0.015 0.035c-0.012 0.009-0.026 0.015-0.042 0.017l-0.001 0c-0.021 0.004-0.045 0.006-0.069 0.006-0.004 0-0.008-0-0.012-0h0.001c-0.002 0-0.005 0-0.008 0-0.026 0-0.051-0.002-0.076-0.007l0.003 0c-0.017-0.002-0.031-0.009-0.044-0.018l0 0q-0.014-0.011-0.013-0.035v-0.176c-0.072 0.078-0.157 0.142-0.252 0.189l-0.005 0.002c-0.087 0.043-0.189 0.067-0.296 0.067-0.001 0-0.001 0-0.002 0h0c-0.093 0-0.176-0.012-0.251-0.037-0.073-0.023-0.137-0.058-0.191-0.105l0.001 0.001c-0.052-0.045-0.094-0.101-0.121-0.165l-0.001-0.003c-0.028-0.064-0.044-0.138-0.044-0.216 0-0.003 0-0.007 0-0.011v0.001c0-0.099 0.020-0.185 0.060-0.257 0.041-0.075 0.101-0.137 0.172-0.182 0.080-0.049 0.173-0.087 0.272-0.107l0.005-0.001c0.106-0.023 0.227-0.036 0.351-0.036 0.006 0 0.012 0 0.018 0h0.242v-0.136q0-0.102-0.022-0.18c-0.013-0.050-0.037-0.094-0.069-0.13l0 0c-0.033-0.035-0.075-0.062-0.122-0.077l-0.002-0.001c-0.052-0.017-0.113-0.027-0.175-0.027-0.004 0-0.009 0-0.013 0h0.001c-0.079 0-0.151 0.011-0.213 0.029-0.065 0.019-0.12 0.040-0.173 0.065l0.007-0.003q-0.070 0.033-0.119 0.061-0.047 0.030-0.070 0.029c-0.010-0-0.020-0.003-0.027-0.009l0 0c-0.009-0.006-0.016-0.013-0.021-0.022l-0-0c-0.007-0.012-0.011-0.025-0.012-0.040l-0-0c-0.003-0.014-0.004-0.030-0.004-0.046 0-0.003 0-0.005 0-0.007v0c0-0.032 0.002-0.058 0.008-0.076 0.006-0.021 0.017-0.040 0.032-0.054v0q0.027-0.025 0.091-0.059c0.044-0.023 0.092-0.044 0.149-0.063 0.050-0.017 0.111-0.034 0.174-0.045l0.009-0.001c0.060-0.012 0.13-0.019 0.201-0.019h0zM4.957 30.072q0.070 0 0.14 0.012c0.047 0.007 0.088 0.017 0.127 0.029 0.059 0.017 0.111 0.042 0.158 0.075l-0.002-0.001q0.016 0.011 0.028 0.027c0.004 0.008 0.007 0.017 0.009 0.026l0 0.001q0.003 0.014 0.006 0.035 0.004 0.055 0 0.111c-0.001 0.015-0.005 0.028-0.011 0.040l0-0.001c-0.004 0.010-0.009 0.018-0.017 0.023-0.006 0.004-0.013 0.007-0.021 0.008h-0q-0.019 0-0.051-0.022c-0.024-0.016-0.052-0.031-0.081-0.044l-0.004-0.002c-0.034-0.016-0.075-0.031-0.117-0.044l-0.007-0.002c-0.047-0.014-0.1-0.022-0.156-0.022-0.003 0-0.005 0-0.008 0h0c-0.003-0-0.006-0-0.009-0-0.048 0-0.095 0.007-0.139 0.019l0.004-0.001c-0.040 0.011-0.074 0.029-0.103 0.054l0-0c-0.026 0.021-0.046 0.048-0.060 0.078l-0.001 0.001c-0.013 0.029-0.020 0.062-0.020 0.098 0 0.002 0 0.003 0 0.005v-0q-0 0.075 0.039 0.127t0.102 0.091q0.061 0.038 0.141 0.070l0.163 0.064q0.082 0.033 0.163 0.074t0.144 0.099q0.062 0.060 0.099 0.141c0.025 0.055 0.039 0.12 0.039 0.196q0 0.135-0.050 0.239c-0.034 0.071-0.082 0.131-0.141 0.177l-0.001 0.001c-0.062 0.048-0.135 0.085-0.214 0.107l-0.004 0.001c-0.081 0.024-0.175 0.038-0.271 0.038-0.003 0-0.005 0-0.008-0h0c-0.061 0-0.122-0.005-0.178-0.015-0.058-0.010-0.109-0.023-0.159-0.039l0.007 0.002c-0.045-0.014-0.083-0.030-0.119-0.049l0.004 0.002c-0.026-0.012-0.048-0.027-0.068-0.044l0 0c-0.015-0.014-0.027-0.033-0.031-0.054l-0-0.001c-0.006-0.029-0.010-0.063-0.010-0.098 0-0.021 0.001-0.042 0.004-0.063l-0 0.002c0.003-0.016 0.006-0.029 0.011-0.043l-0.001 0.002c0.003-0.009 0.008-0.017 0.015-0.022l0-0c0.007-0.004 0.016-0.006 0.025-0.006 0 0 0 0 0 0v0q0.022-0 0.064 0.026t0.103 0.057 0.146 0.058c0.056 0.017 0.12 0.026 0.192 0.026q0.082 0 0.148-0.017c0.041-0.010 0.080-0.027 0.115-0.052 0.032-0.022 0.057-0.051 0.074-0.085l0.001-0.001c0.016-0.034 0.026-0.075 0.026-0.117 0-0.003-0-0.006-0-0.008v0c0-0.002 0-0.004 0-0.006 0-0.044-0.014-0.086-0.038-0.119l0 0.001c-0.028-0.036-0.062-0.065-0.1-0.089l-0.002-0.001c-0.040-0.025-0.086-0.048-0.134-0.068l-0.006-0.002-0.16-0.063c-0.068-0.028-0.121-0.054-0.173-0.081l0.011 0.005c-0.054-0.028-0.1-0.062-0.141-0.102l0 0c-0.041-0.040-0.075-0.088-0.1-0.141l-0.001-0.003c-0.024-0.056-0.037-0.121-0.037-0.19 0-0.004 0-0.008 0-0.011v0.001c-0-0.003-0-0.007-0-0.010 0-0.141 0.061-0.267 0.159-0.353l0-0q0.080-0.071 0.2-0.113c0.079-0.028 0.17-0.044 0.265-0.044 0.005 0 0.010 0 0.015 0h-0.001zM13.967 29.629c0.032 0 0.059 0.003 0.080 0.004 0.018 0.002 0.035 0.007 0.050 0.013l-0.001-0q0.015 0.007 0.025 0.021c0.005 0.007 0.008 0.015 0.008 0.025 0 0 0 0 0 0v0 0.418h0.45c0-0 0.001-0 0.002-0 0.010 0 0.019 0.003 0.027 0.008l-0-0c0.009 0.005 0.015 0.013 0.020 0.022l0 0c0.007 0.012 0.011 0.026 0.012 0.041l0 0q0.005 0.026 0.004 0.063-0 0.070-0.018 0.102t-0.047 0.031h-0.45v0.979q0 0.182 0.053 0.273c0.036 0.061 0.1 0.093 0.193 0.093q0.044-0 0.080-0.008c0.028-0.007 0.048-0.014 0.069-0.021l-0.007 0.002c0.019-0.007 0.035-0.013 0.050-0.020l-0.003 0.001c0.010-0.005 0.023-0.008 0.035-0.009h0q0.009 0 0.018 0.004c0.007 0.004 0.011 0.011 0.014 0.018l0 0c0.008 0.026 0.013 0.055 0.013 0.086 0 0.003-0 0.007-0 0.010v-0q0 0.056-0.008 0.090c-0.003 0.019-0.012 0.036-0.024 0.049l0-0c-0.013 0.012-0.029 0.022-0.046 0.029l-0.001 0c-0.020 0.009-0.043 0.017-0.068 0.022l-0.003 0.001c-0.017 0.004-0.046 0.009-0.076 0.014l-0.010 0.001c-0.026 0.003-0.056 0.005-0.086 0.005-0.001 0-0.002 0-0.003 0h0c-0.005 0-0.010 0-0.015 0-0.078 0-0.154-0.013-0.224-0.037l0.005 0.001c-0.064-0.023-0.117-0.061-0.159-0.109l-0-0c-0.043-0.052-0.074-0.114-0.090-0.182l-0.001-0.003c-0.018-0.075-0.028-0.16-0.028-0.248 0-0.006 0-0.011 0-0.017v0.001-1.025h-0.245q-0.030 0-0.047-0.031c-0.012-0.021-0.018-0.055-0.018-0.102q-0-0.036 0.004-0.062c0.004-0.016 0.008-0.030 0.014-0.043l-0.001 0.002c0.004-0.010 0.011-0.018 0.020-0.023l0-0c0.008-0.005 0.017-0.008 0.026-0.008 0.001 0 0.001 0 0.002 0h0.245v-0.417q0-0.014 0.006-0.025c0.007-0.009 0.015-0.017 0.026-0.021l0-0c0.014-0.006 0.031-0.010 0.048-0.012l0.001-0q0.039-0.004 0.078-0.004zM1.202 29.428q0.054 0 0.087 0.003c0.018 0.002 0.035 0.005 0.052 0.011l-0.002-0c0.011 0.005 0.019 0.012 0.026 0.021l0 0c0.006 0.009 0.012 0.020 0.016 0.031l0 0.001 0.724 2.123h0.002l0.703-2.119c0.003-0.014 0.008-0.025 0.014-0.037l-0 0.001c0.006-0.010 0.016-0.018 0.027-0.021l0-0c0.016-0.005 0.035-0.009 0.054-0.011l0.001-0q0.095-0.008 0.189 0.002 0.034 0.005 0.047 0.019c0.010 0.009 0.013 0.022 0.011 0.040q-0.006 0.036-0.019 0.070l-0.822 2.343c-0.005 0.014-0.012 0.026-0.022 0.036l0-0c-0.011 0.010-0.024 0.017-0.038 0.022l-0.001 0c-0.018 0.006-0.040 0.010-0.062 0.010l-0.001 0c-0.026 0.002-0.056 0.003-0.087 0.003-0.002 0-0.005 0-0.007-0h0l-0.076-0.001c-0.034-0.001-0.066-0.006-0.097-0.014l0.003 0.001c-0.011-0.003-0.020-0.007-0.029-0.014l0 0c-0.008-0.004-0.014-0.010-0.019-0.018l-0-0c-0.005-0.008-0.009-0.017-0.012-0.026l-0-0.001-0.825-2.343c-0.008-0.020-0.014-0.044-0.017-0.069l-0-0.001q0-0.026 0.016-0.040c0.016-0.010 0.036-0.017 0.057-0.018l0-0q0.038-0.004 0.105-0.004zM12.57 29.403c0.111 0 0.222 0.019 0.328 0.054 0.050 0.016 0.095 0.035 0.134 0.054q0.058 0.030 0.078 0.049c0.009 0.009 0.017 0.018 0.023 0.028l0 0.001q0.007 0.012 0.009 0.027c0.003 0.012 0.005 0.026 0.006 0.040l0 0.001q0.002 0.023 0.002 0.061 0 0.035-0.003 0.061c-0.002 0.018-0.005 0.034-0.008 0.049l0.001-0.002c-0.003 0.011-0.009 0.020-0.017 0.027l-0 0c-0.007 0.005-0.016 0.008-0.025 0.008v0c-0.013 0-0.037-0.009-0.066-0.027-0.027-0.017-0.064-0.037-0.101-0.056l-0.011-0.005c-0.044-0.023-0.096-0.044-0.15-0.061l-0.007-0.002c-0.059-0.018-0.126-0.028-0.195-0.028-0.003 0-0.006 0-0.009 0h0c-0.069 0-0.131 0.009-0.183 0.028-0.050 0.016-0.092 0.042-0.128 0.075l0-0c-0.033 0.030-0.059 0.068-0.076 0.109l-0.001 0.002c-0.016 0.040-0.026 0.087-0.026 0.136v0c0 0.070 0.017 0.131 0.049 0.181q0.048 0.077 0.13 0.134c0.054 0.040 0.116 0.075 0.184 0.108q0.103 0.048 0.21 0.098t0.21 0.109q0.104 0.059 0.184 0.141c0.055 0.055 0.099 0.119 0.131 0.19q0.050 0.111 0.050 0.261 0 0.177-0.066 0.317c-0.044 0.093-0.105 0.172-0.18 0.234l-0.001 0.001c-0.077 0.064-0.168 0.113-0.268 0.144l-0.005 0.001c-0.099 0.031-0.213 0.049-0.331 0.049-0.002 0-0.005 0-0.007-0h0q-0.127 0-0.234-0.022c-0.075-0.014-0.14-0.032-0.202-0.055l0.009 0.003c-0.055-0.020-0.102-0.042-0.146-0.067l0.005 0.003c-0.031-0.016-0.057-0.035-0.080-0.056l0 0c-0.015-0.016-0.027-0.036-0.033-0.059l-0-0.001c-0.007-0.026-0.011-0.055-0.011-0.086 0-0.004 0-0.008 0-0.012v0.001q0-0.043 0.004-0.070c0.002-0.018 0.007-0.033 0.013-0.048l-0 0.001c0.004-0.010 0.010-0.018 0.018-0.024l0-0c0.008-0.004 0.017-0.006 0.026-0.006 0.001 0 0.001 0 0.002 0h-0q0.027-0 0.078 0.032 0.048 0.034 0.127 0.073 0.078 0.038 0.188 0.073c0.082 0.024 0.169 0.036 0.255 0.035q0.102 0 0.199-0.029c0.060-0.019 0.112-0.047 0.157-0.084l-0.001 0.001q0.066-0.052 0.101-0.132c0.022-0.050 0.035-0.108 0.035-0.17 0-0.003-0-0.005-0-0.008v0c0-0.003 0-0.006 0-0.009 0-0.064-0.018-0.124-0.050-0.175l0.001 0.001c-0.035-0.053-0.078-0.097-0.127-0.132l-0.002-0.001c-0.053-0.038-0.112-0.073-0.176-0.102l-0.007-0.003-0.209-0.098c-0.084-0.039-0.153-0.076-0.219-0.116l0.010 0.006c-0.069-0.041-0.128-0.089-0.181-0.143l-0-0c-0.053-0.054-0.096-0.118-0.128-0.187l-0.002-0.004c-0.031-0.073-0.049-0.159-0.049-0.248 0-0.006 0-0.012 0-0.017l-0 0.001q-0-0.157 0.057-0.282 0.057-0.123 0.159-0.207c0.069-0.056 0.151-0.099 0.239-0.127l0.005-0.001c0.089-0.028 0.191-0.044 0.296-0.044 0.003 0 0.006 0 0.009 0h-0zM19.383 29.376c0.075 0 0.127 0.012 0.155 0.040q0.042 0.040 0.042 0.151-0 0.114-0.043 0.154c-0.029 0.028-0.081 0.042-0.159 0.042q-0.112 0-0.155-0.041c-0.028-0.026-0.041-0.077-0.041-0.151q0-0.113 0.043-0.154 0.044-0.041 0.158-0.041zM3.746 29.376c0.075 0 0.127 0.012 0.155 0.040q0.041 0.040 0.041 0.151 0 0.114-0.042 0.154-0.044 0.042-0.158 0.042c-0.076 0-0.127-0.014-0.155-0.041s-0.042-0.077-0.042-0.151c0-0.075 0.014-0.127 0.042-0.154q0.042-0.041 0.158-0.041zM18.397 29.256q0.049-0 0.080 0.004t0.049 0.011c0.011 0.004 0.019 0.011 0.026 0.020l0 0c0.006 0.007 0.009 0.017 0.010 0.027v2.597c-0 0.010-0.003 0.019-0.008 0.027l0-0c-0.006 0.008-0.013 0.015-0.023 0.019l-0 0c-0.013 0.005-0.028 0.008-0.043 0.011l-0.001 0c-0.020 0.003-0.043 0.004-0.067 0.004s-0.047-0.002-0.070-0.004l0.003 0c-0.017-0.002-0.032-0.006-0.047-0.011l0.002 0.001c-0.010-0.004-0.018-0.011-0.024-0.019l-0-0c-0.005-0.008-0.008-0.017-0.009-0.027v-0.233c-0.082 0.093-0.18 0.172-0.288 0.235q-0.148 0.083-0.326 0.083c-0.128 0-0.238-0.025-0.329-0.075s-0.165-0.118-0.22-0.201l-0.001-0.002c-0.056-0.086-0.099-0.186-0.122-0.294l-0.001-0.006c-0.025-0.107-0.039-0.23-0.039-0.356 0-0.003 0-0.006 0-0.009v0q-0-0.226 0.048-0.407c0.033-0.122 0.081-0.225 0.145-0.311 0.062-0.084 0.141-0.151 0.233-0.196l0.004-0.002c0.091-0.044 0.199-0.070 0.312-0.070 0.005 0 0.010 0 0.014 0h-0.001c0.002-0 0.004-0 0.006-0 0.101 0 0.196 0.025 0.28 0.069l-0.003-0.002c0.097 0.055 0.18 0.12 0.252 0.197l0.001 0.001v-1.019q0-0.015 0.006-0.027c0.006-0.009 0.015-0.016 0.026-0.020l0-0q0.062-0.019 0.127-0.015zM10.232 29.247q0.049-0 0.079 0.004c0.018 0.001 0.034 0.005 0.050 0.012l-0.001-0c0.011 0.004 0.019 0.011 0.026 0.019l0 0c0.005 0.008 0.008 0.017 0.008 0.026 0 0 0 0.001 0 0.001v-0 2.605c0 0 0 0.001 0 0.002 0 0.009-0.003 0.017-0.008 0.024l0-0c-0.007 0.008-0.016 0.014-0.026 0.019l-0 0c-0.014 0.005-0.031 0.010-0.048 0.011l-0.001 0q-0.079 0.008-0.157 0c-0.019-0.002-0.036-0.006-0.052-0.012l0.002 0.001c-0.011-0.004-0.019-0.010-0.026-0.019l-0-0c-0.004-0.007-0.006-0.015-0.006-0.024 0-0.001 0-0.001 0-0.002v0-2.605q0-0.014 0.006-0.027c0.006-0.009 0.015-0.016 0.026-0.020l0-0c0.015-0.006 0.032-0.010 0.049-0.011l0.001-0c0.019-0.003 0.042-0.004 0.065-0.004 0.005 0 0.009 0 0.014 0h-0.001zM28.157 30.348q-0.123 0-0.209 0.059c-0.058 0.040-0.105 0.092-0.138 0.152l-0.001 0.002c-0.035 0.062-0.062 0.135-0.077 0.211l-0.001 0.005c-0.015 0.073-0.024 0.157-0.024 0.243 0 0.001 0 0.002 0 0.004v-0c0 0.087 0.006 0.174 0.021 0.259q0.020 0.126 0.070 0.224 0.050 0.099 0.134 0.158t0.21 0.059c0.044 0 0.084-0.006 0.124-0.017 0.043-0.014 0.084-0.033 0.122-0.058q0.062-0.041 0.131-0.106t0.145-0.162v-0.701q-0.131-0.162-0.253-0.247c-0.070-0.052-0.158-0.083-0.253-0.085h-0zM26.080 30.341q-0.144 0-0.247 0.051c-0.069 0.034-0.127 0.082-0.17 0.141l-0.001 0.001c-0.044 0.063-0.078 0.136-0.098 0.215l-0.001 0.004c-0.023 0.091-0.033 0.184-0.032 0.277q-0 0.145 0.026 0.27 0.027 0.128 0.088 0.221 0.063 0.095 0.167 0.15 0.105 0.056 0.259 0.056 0.142-0 0.247-0.051c0.069-0.034 0.126-0.082 0.17-0.141l0.001-0.001q0.067-0.091 0.099-0.219c0.021-0.091 0.032-0.185 0.031-0.279 0-0.001 0-0.002 0-0.003 0-0.094-0.010-0.186-0.029-0.275l0.002 0.009c-0.017-0.084-0.047-0.159-0.089-0.225l0.002 0.003c-0.041-0.064-0.097-0.115-0.163-0.15l-0.002-0.001c-0.069-0.037-0.157-0.055-0.259-0.055zM30.188 30.323c-0.002-0-0.005-0-0.008-0-0.073 0-0.143 0.017-0.205 0.046l0.003-0.001c-0.060 0.029-0.11 0.069-0.15 0.118l-0.001 0.001c-0.040 0.049-0.072 0.106-0.094 0.169l-0.001 0.004c-0.021 0.061-0.034 0.131-0.037 0.205l-0 0.001h0.957q0.006-0.253-0.113-0.398t-0.352-0.145zM30.205 30.072c0.139 0 0.255 0.023 0.352 0.067 0.092 0.041 0.174 0.102 0.24 0.179 0.062 0.074 0.108 0.163 0.137 0.262 0.029 0.105 0.044 0.213 0.044 0.323v0.059q0 0.075-0.038 0.108c-0.023 0.020-0.053 0.032-0.086 0.032-0 0-0.001 0-0.001 0h-1.156q0 0.146 0.030 0.263 0.029 0.118 0.098 0.201t0.178 0.129 0.268 0.045c0.001 0 0.002 0 0.003 0 0.14 0 0.274-0.024 0.398-0.069l-0.008 0.003q0.072-0.026 0.117-0.046c0.020-0.010 0.044-0.017 0.069-0.020l0.001-0q0.014 0 0.025 0.006c0.007 0.005 0.013 0.012 0.016 0.021l0 0c0.003 0.010 0.006 0.023 0.008 0.036l0 0.001q0.006 0.052 0.001 0.104c-0.001 0.013-0.003 0.024-0.006 0.035l0-0.002c-0.004 0.019-0.013 0.035-0.027 0.048l-0 0c-0.018 0.014-0.039 0.026-0.062 0.035l-0.002 0.001c-0.038 0.018-0.084 0.034-0.131 0.047l-0.006 0.001c-0.050 0.014-0.115 0.029-0.182 0.040l-0.012 0.002c-0.071 0.012-0.152 0.019-0.235 0.019h-0q-0.217 0-0.379-0.060c-0.108-0.040-0.2-0.101-0.274-0.179l-0-0c-0.075-0.083-0.132-0.183-0.166-0.293l-0.001-0.006c-0.038-0.12-0.056-0.258-0.056-0.417q0-0.226 0.058-0.406c0.035-0.113 0.093-0.217 0.169-0.307 0.072-0.082 0.161-0.147 0.262-0.191l0.005-0.002c0.1-0.043 0.215-0.068 0.337-0.068 0.004 0 0.008 0 0.012 0h-0.001zM26.093 30.072q0.217 0 0.378 0.064c0.103 0.040 0.195 0.104 0.267 0.188 0.072 0.082 0.125 0.181 0.162 0.299q0.053 0.175 0.053 0.396 0 0.214-0.056 0.394c-0.036 0.12-0.094 0.224-0.17 0.312l0.001-0.001c-0.076 0.087-0.17 0.156-0.276 0.202l-0.005 0.002q-0.169 0.073-0.39 0.073-0.218 0-0.378-0.064c-0.106-0.042-0.196-0.106-0.267-0.187l-0.001-0.001c-0.071-0.083-0.127-0.183-0.159-0.292l-0.001-0.006c-0.034-0.114-0.053-0.244-0.053-0.379 0-0.006 0-0.013 0-0.019v0.001c0-0.144 0.019-0.275 0.056-0.395 0.036-0.12 0.093-0.223 0.169-0.311l-0.001 0.001c0.075-0.087 0.169-0.156 0.275-0.201l0.005-0.002q0.167-0.073 0.392-0.073zM24.158 29.41q0.109-0 0.212 0.020 0.105 0.020 0.192 0.052t0.156 0.072 0.095 0.067c0.013 0.012 0.024 0.025 0.033 0.039l0 0.001c0.006 0.009 0.011 0.020 0.013 0.032l0 0.001c0.007 0.031 0.011 0.067 0.011 0.104 0 0.023-0.002 0.047-0.005 0.069l0-0.003c-0.002 0.017-0.006 0.032-0.012 0.047l0-0.001c-0.004 0.011-0.010 0.020-0.018 0.027l-0 0c-0.007 0.006-0.015 0.009-0.025 0.009-0.001 0-0.001 0-0.002-0h0c-0.019 0-0.044-0.012-0.077-0.038-0.036-0.027-0.077-0.055-0.12-0.080l-0.006-0.003c-0.054-0.032-0.116-0.061-0.181-0.083l-0.007-0.002c-0.075-0.024-0.161-0.038-0.25-0.038-0.005 0-0.011 0-0.016 0h0.001q-0.169 0-0.307 0.067c-0.095 0.048-0.174 0.115-0.235 0.196l-0.001 0.002c-0.067 0.091-0.119 0.198-0.15 0.313l-0.002 0.007c-0.035 0.123-0.055 0.265-0.055 0.411 0 0.007 0 0.013 0 0.020v-0.001q0 0.239 0.052 0.424c0.035 0.122 0.084 0.226 0.149 0.308q0.098 0.123 0.238 0.187 0.142 0.063 0.319 0.063 0.151 0 0.264-0.037 0.101-0.032 0.192-0.082 0.067-0.038 0.13-0.083 0.052-0.038 0.080-0.038c0 0 0 0 0 0 0.009 0 0.017 0.002 0.024 0.006l-0-0q0.011 0.009 0.015 0.022 0.008 0.023 0.010 0.046 0.002 0.030 0.002 0.075 0 0.032-0.001 0.055c-0.002 0.015-0.004 0.029-0.008 0.042l0-0.002c-0.003 0.012-0.007 0.022-0.013 0.032l0-0c-0.008 0.013-0.017 0.023-0.027 0.033l-0 0c-0.024 0.022-0.051 0.041-0.080 0.058l-0.002 0.001c-0.044 0.028-0.095 0.054-0.149 0.076l-0.006 0.002c-0.060 0.025-0.131 0.047-0.204 0.063l-0.008 0.001c-0.076 0.017-0.164 0.026-0.254 0.026-0.003 0-0.006 0-0.009-0h0c-0.006 0-0.012 0-0.019 0-0.153 0-0.299-0.030-0.433-0.084l0.008 0.003c-0.134-0.056-0.247-0.138-0.336-0.241l-0.001-0.001c-0.093-0.106-0.164-0.237-0.215-0.394-0.050-0.156-0.075-0.337-0.075-0.541 0-0.209 0.026-0.395 0.080-0.559 0.051-0.16 0.129-0.299 0.229-0.418l-0.002 0.002c0.095-0.11 0.212-0.198 0.344-0.258l0.006-0.002c0.128-0.057 0.278-0.090 0.435-0.090 0.006 0 0.011 0 0.017 0h-0.001zM28.823 29.256c0.004-0 0.009-0 0.013-0 0.023 0 0.046 0.002 0.069 0.005l-0.003-0c0.018 0.002 0.035 0.006 0.050 0.012l-0.002-0.001c0.010 0.004 0.019 0.011 0.026 0.019l0 0c0.006 0.008 0.009 0.017 0.009 0.027v2.597c-0 0.010-0.003 0.019-0.007 0.027l0-0c-0.006 0.009-0.014 0.015-0.024 0.019l-0 0c-0.012 0.004-0.027 0.008-0.042 0.011l-0.001 0c-0.020 0.003-0.043 0.004-0.067 0.004s-0.047-0.002-0.070-0.004l0.003 0c-0.017-0.002-0.032-0.006-0.047-0.011l0.002 0.001c-0.010-0.004-0.018-0.011-0.025-0.019l-0-0c-0.005-0.008-0.008-0.017-0.008-0.027v-0.233c-0.082 0.091-0.177 0.169-0.282 0.231l-0.006 0.003c-0.093 0.052-0.203 0.083-0.322 0.083-0.002 0-0.004 0-0.005-0h0q-0.192 0-0.329-0.075c-0.091-0.050-0.165-0.118-0.22-0.201l-0.001-0.002c-0.056-0.086-0.099-0.186-0.123-0.294l-0.001-0.006c-0.024-0.106-0.038-0.228-0.038-0.353 0-0.004 0-0.008 0-0.012v0.001q-0-0.226 0.048-0.407c0.034-0.122 0.081-0.225 0.145-0.311 0.062-0.084 0.143-0.152 0.237-0.198 0.091-0.044 0.199-0.070 0.312-0.070 0.005 0 0.009 0 0.014 0h-0.001q0.154 0 0.282 0.067c0.098 0.054 0.181 0.12 0.253 0.197l0.001 0.001v-1.019c0-0.010 0.002-0.019 0.006-0.028l-0 0c0.004-0.009 0.014-0.015 0.026-0.020 0.014-0.005 0.031-0.009 0.048-0.011l0.002-0c0.021-0.003 0.046-0.004 0.077-0.004z"></path>
<path fill="#0065a9" style="fill: var(--color4, #0065a9)" d="M29.721 3.032l-5.929-2.855c-0.227-0.112-0.495-0.177-0.777-0.177-0.495 0-0.943 0.201-1.268 0.525v0l-19.409 17.697c-0.241 0.22-0.391 0.535-0.391 0.886s0.151 0.667 0.391 0.886l0.001 0.001 1.585 1.441c0.212 0.193 0.496 0.312 0.807 0.312 0.274 0 0.526-0.092 0.728-0.246l-0.003 0.002 23.373-17.731c0.784-0.595 1.91-0.036 1.91 0.949v-0.069c0 0 0-0 0-0 0-0.71-0.411-1.323-1.008-1.616l-0.011-0.005z"></path>
<path fill="#007acc" style="fill: var(--color5, #007acc)" d="M29.721 25.594l-5.929 2.855c-0.227 0.112-0.495 0.177-0.777 0.177-0.495 0-0.943-0.201-1.267-0.525v0l-19.409-17.697c-0.241-0.22-0.391-0.535-0.391-0.886s0.151-0.667 0.391-0.886l0.001-0.001 1.585-1.441c0.212-0.193 0.496-0.312 0.807-0.312 0.274 0 0.526 0.092 0.728 0.246l-0.003-0.002 23.373 17.731c0.784 0.595 1.91 0.036 1.91-0.948v0.069c0 0 0 0 0 0 0 0.71-0.411 1.323-1.008 1.616l-0.011 0.005z"></path>
<path fill="#1f9cf0" style="fill: var(--color6, #1f9cf0)" d="M23.793 28.449c-0.227 0.112-0.495 0.177-0.777 0.177-0.495 0-0.943-0.201-1.268-0.525v0c0.663 0.664 1.798 0.194 1.798-0.745v-26.086c0-0.939-1.135-1.409-1.798-0.745 0.325-0.325 0.773-0.525 1.268-0.525 0.283 0 0.55 0.065 0.788 0.182l-0.011-0.005 5.928 2.851c0.608 0.297 1.019 0.911 1.019 1.621v0 19.329c-0 0.71-0.411 1.324-1.009 1.616l-0.011 0.005z"></path>
<path fill="#000" style="fill: var(--color7, #000)" opacity="0.25" d="M22.352 28.504l-0.012-0.004c-0.228-0.091-0.434-0.227-0.604-0.399l-11.341-10.347-4.937 3.748c-0.202 0.154-0.454 0.246-0.727 0.246-0.311 0-0.594-0.118-0.806-0.312l-1.585-1.442c-0.241-0.219-0.391-0.535-0.391-0.886s0.15-0.666 0.391-0.886l4.284-3.909-4.285-3.909c-0.24-0.219-0.39-0.535-0.39-0.885s0.151-0.667 0.392-0.887l1.584-1.441c0.213-0.194 0.496-0.313 0.807-0.313 0.273 0 0.526 0.092 0.724 0.244l4.94 3.75 11.341-10.347c0.324-0.325 0.772-0.526 1.267-0.526 0.283 0 0.55 0.065 0.777 0.177l5.935 2.856c0.597 0.293 1.008 0.906 1.008 1.616 0 0 0 0 0 0v19.329c0 0 0 0 0 0 0 0.71-0.411 1.323-1.018 1.62l-5.914 2.846c-0.238 0.116-0.505 0.182-0.787 0.182-0.234 0-0.458-0.045-0.651-0.122zM23.533 7.781l-8.605 6.532 8.606 6.532v-13.064z"></path>
</symbol>
<symbol id="icon-Figma" viewBox="0 0 21 32">
<path fill="#0acf83" style="fill: var(--color8, #0acf83)" d="M5.387 32c2.944 0 5.333-2.389 5.333-5.333v-5.333h-5.333c-2.944 0-5.333 2.389-5.333 5.333s2.389 5.333 5.333 5.333z"></path>
<path fill="#a259ff" style="fill: var(--color9, #a259ff)" d="M0.053 16c0-2.944 2.389-5.333 5.333-5.333h5.333v10.667h-5.333c-2.944 0-5.333-2.389-5.333-5.333z"></path>
<path fill="#f24e1e" style="fill: var(--color10, #f24e1e)" d="M0.053 5.333c0-2.944 2.389-5.333 5.333-5.333h5.333v10.667h-5.333c-2.944 0-5.333-2.389-5.333-5.333z"></path>
<path fill="#ff7262" style="fill: var(--color11, #ff7262)" d="M10.72 0h5.333c2.944 0 5.333 2.389 5.333 5.333s-2.389 5.333-5.333 5.333h-5.333z"></path>
<path fill="#1abcfe" style="fill: var(--color12, #1abcfe)" d="M21.387 16c0 2.944-2.389 5.333-5.333 5.333s-5.333-2.389-5.333-5.333 2.389-5.333 5.333-5.333 5.333 2.389 5.333 5.333z"></path>
</symbol>
<symbol id="icon-Postman" viewBox="0 0 32 32">
<path fill="#f37036" style="fill: var(--color13, #f37036)" d="M28.279 6.516c-5.237-6.782-14.982-8.034-21.764-2.796-6.781 5.238-8.032 14.983-2.794 21.764s14.984 8.031 21.765 2.792c6.778-5.238 8.030-14.979 2.793-21.76z"></path>
<path fill="#fff" style="fill: var(--color14, #fff)" d="M22.77 6.041c-0.558 0.046-1.056 0.268-1.448 0.609l0.003-0.003c-0.53 0.462-0.863 1.139-0.863 1.893 0 0.554 0.179 1.065 0.483 1.48l-0.005-0.007c0.461 0.631 1.198 1.035 2.030 1.035 0.476 0 0.921-0.133 1.3-0.363l-0.011 0.006h0v0l0.039 0.039c0.186-0.108 0.347-0.228 0.493-0.364l-0.002 0.001c0.438-0.462 0.707-1.088 0.707-1.776 0-0.708-0.285-1.35-0.746-1.817l0 0v-0l-2.211 2.197-0.039-0.039 2.211-2.198c-0.451-0.435-1.065-0.703-1.742-0.703-0.070 0-0.14 0.003-0.209 0.009l0.009-0.001zM19.858 9.638c-1.060-0.002-2.791 1.2-7.017 5.426l0.021 0.021c-0.023-0.008-0.046-0.009-0.046-0.009l-1.591 1.577c-0.050 0.047-0.080 0.114-0.080 0.187 0 0.143 0.116 0.259 0.259 0.259 0.019 0 0.038-0.002 0.056-0.006l-0.002 0 2.729-0.582c0.012-0.011 0.020-0.026 0.023-0.042l0-0 0.060 0.063-0.93 0.922h-0.045l-5.521 5.565 1.771 1.706c0.055 0.050 0.129 0.081 0.21 0.081 0.059 0 0.114-0.016 0.161-0.044l-0.001 0.001c0.1-0.059 0.165-0.165 0.165-0.287 0-0.018-0.001-0.036-0.004-0.054l0 0.002-0.259-1.125c-0.016-0.021-0.025-0.048-0.025-0.078s0.009-0.056 0.025-0.078l-0 0c2.553-1.231 4.752-2.698 6.718-4.424l-0.033 0.029-1.134-1.134 0.021-0.003-0.672-0.672 0.043-0.044 0.046 0.047-0.024 0.023 1.784 1.823c3.42-3.239 5.848-5.842 5.216-7.594-0.031-0.218-0.131-0.408-0.277-0.552l-0-0v0.001c-0.035-0.026-0.074-0.051-0.116-0.074l-0.005-0.003c-0.021-0.022-0.039-0.044-0.061-0.066l-0.017 0.017c-0.041-0.025-0.089-0.050-0.139-0.070l-0.007-0.002 0.072-0.073c-0.449-0.4-0.82-0.731-1.375-0.732zM7.735 23.052l-1.293 1.294c-0.074 0.046-0.122 0.127-0.122 0.219 0 0.022 0.003 0.044 0.008 0.064l-0-0.002c0.027 0.108 0.118 0.188 0.229 0.197l3.169 0.219z"></path>
<path fill="#f37036" style="fill: var(--color13, #f37036)" d="M22.988 5.827c-0.001 0-0.002 0-0.003 0-0.755 0-1.438 0.303-1.937 0.793l0-0c-0.484 0.495-0.782 1.173-0.782 1.92 0 0.356 0.068 0.697 0.191 1.009l-0.006-0.019c-1.185-0.508-2.789 0.377-7.777 5.364-0.003 0.006-0.006 0.014-0.009 0.022l-0.001 0.002c-0.012 0.005-0.021 0.010-0.031 0.016l0.001-0.001-1.577 1.591c-0.091 0.089-0.148 0.214-0.148 0.351 0 0.084 0.021 0.163 0.058 0.232l-0.001-0.003c0.088 0.147 0.246 0.244 0.426 0.246h0l0.078-0.051 2.106-0.449-1.008 1.017c-0.005 0.012-0.010 0.025-0.013 0.040l-0 0.002-4.938 4.95c-0.019 0.016-0.035 0.036-0.047 0.058l-0.001 0.001-1.271 1.273c-0.083 0.088-0.135 0.207-0.135 0.338 0 0.062 0.011 0.121 0.032 0.176l-0.001-0.003c0.068 0.172 0.224 0.296 0.412 0.316l0.002 0 3.155 0.22c0.055-0.019 0.1-0.056 0.129-0.103l0.001-0.001c0.026-0.036 0.041-0.081 0.041-0.129s-0.016-0.093-0.042-0.13l0 0.001-0.007-0.006c0.070-0.037 0.128-0.085 0.175-0.144l0.001-0.001c0.072-0.093 0.116-0.212 0.116-0.342 0-0.045-0.005-0.089-0.015-0.131l0.001 0.004-0.246-1.047c2.509-1.213 4.672-2.618 6.634-4.256l-0.050 0.041c0.018 0.011 0.038 0.019 0.060 0.025l0.002 0c0.064-0.005 0.123-0.032 0.168-0.077 3.387-3.207 5.379-5.405 5.379-7.151 0.001-0.018 0.001-0.040 0.001-0.062 0-0.233-0.040-0.457-0.113-0.664l0.004 0.014c0.283 0.121 0.612 0.196 0.957 0.207l0.005 0-0.004 0.001c0.478-0.015 0.923-0.148 1.309-0.37l-0.014 0.007 0.001 0c0.018 0.006 0.038 0.009 0.060 0.009 0.034 0 0.067-0.008 0.096-0.023l-0.001 0.001c0.198-0.118 0.368-0.254 0.516-0.412l0.001-0.001c0.503-0.493 0.814-1.18 0.814-1.939v-0c-0-0.759-0.312-1.446-0.814-1.939l-0-0c-0.009-0.008-0.018-0.015-0.029-0.022l-0.001-0.001c-0.496-0.476-1.17-0.769-1.913-0.769-0 0-0.001 0-0.001 0h0zM22.966 6.271c0.528 0.003 1.014 0.183 1.402 0.482l-0.005-0.004-2.017 2.029c-0.006 0.007-0.013 0.015-0.018 0.024l-0.001 0.001c-0.035 0.036-0.058 0.084-0.060 0.137v0c0 0 0 0 0 0 0 0.066 0.030 0.124 0.078 0.162l0 0h0l1.525 1.525c-0.266 0.119-0.577 0.189-0.904 0.189-0.627 0-1.194-0.255-1.603-0.667l-0-0c-0.646-0.65-0.834-1.626-0.488-2.473s1.17-1.401 2.091-1.406zM24.746 7.128c0.316 0.381 0.508 0.874 0.508 1.413 0 0.002 0 0.004 0 0.006v-0c-0.001 0.631-0.258 1.203-0.672 1.616l-0 0c-0.083 0.078-0.172 0.152-0.267 0.219l-0.008 0.005-1.231-1.212-0.241-0.241 0.066-0.066 1.843-1.74zM24.654 8.177c-0.017-0.006-0.038-0.009-0.058-0.009-0.029 0-0.056 0.006-0.080 0.017l0.001-0.001c-0.043 0.022-0.075 0.060-0.090 0.105l-0 0.001c-0.005 0.016-0.008 0.035-0.008 0.055 0 0.031 0.008 0.060 0.021 0.086l-0-0.001c0.034 0.070 0.054 0.152 0.054 0.239 0 0.13-0.044 0.249-0.119 0.344l0.001-0.001c-0.030 0.029-0.049 0.070-0.049 0.115 0 0.002 0 0.005 0 0.007v-0c0.001 0.046 0.017 0.090 0.049 0.123 0.015 0.006 0.033 0.010 0.052 0.010s0.036-0.004 0.053-0.010l-0.001 0c0.012 0.003 0.027 0.005 0.041 0.005 0.050 0 0.096-0.022 0.127-0.057l0-0c0.125-0.152 0.201-0.35 0.201-0.564 0-0.138-0.031-0.269-0.087-0.385l0.002 0.005v0.001c-0.024-0.041-0.062-0.071-0.107-0.086l-0.001-0zM19.835 9.857c0.315 0.011 0.602 0.125 0.83 0.309l-0.003-0.002c-0.264 0.039-0.494 0.16-0.67 0.335l-5.702 5.676-1.119-1.119c2.957-2.943 4.765-4.48 5.889-4.984 0.212-0.135 0.469-0.215 0.746-0.215 0.010 0 0.020 0 0.030 0l-0.002-0zM20.826 10.598c0.199 0 0.38 0.081 0.511 0.211l-0-0c0.136 0.128 0.22 0.309 0.22 0.51 0 0.007-0 0.015-0 0.022l0-0.001c-0.007 0.207-0.101 0.39-0.245 0.517l-0.001 0.001-6.063 5.277-0.654-0.654 5.722-5.67c0.131-0.13 0.311-0.211 0.511-0.211h0zM21.575 12.272c-0.422 1.675-2.662 3.946-4.997 6.152l-0.944-0.943zM12.842 15.387l0.069 0.068 0.878 0.878-2.408 0.515zM14.29 16.847l0.001 0.001 0.292 0.299 0.005 0.021 0.020 0.003 0.267 0.273-1.346 0.165zM15.257 17.866l0.895 0.894c-1.878 1.571-4.001 2.959-6.278 4.081l-0.186 0.083c-0.122 0.059-0.205 0.182-0.205 0.325 0 0.031 0.004 0.062 0.012 0.091l-0.001-0.003 0.259 1.125c0.009 0.013 0.015 0.028 0.015 0.045s-0.005 0.033-0.015 0.046l0-0c-0.014 0.012-0.032 0.020-0.052 0.020s-0.038-0.008-0.052-0.020l0 0-1.526-1.538 4.702-4.771zM7.774 23.351l0.217 0.203 1.123 1.123-2.504-0.162 1.164-1.165z"></path>
</symbol>
<symbol id="icon-Nextjs" viewBox="0 0 158 32">
<path d="M132.353-0.009v5.072h-10.901v26.683h-5.451v-26.682h-11.128v-5.072zM133.578 28.72c0.384 0 0.72 0.138 1.004 0.415 0.288 0.276 0.432 0.608 0.436 0.993-0.001 0.265-0.076 0.513-0.207 0.723l0.003-0.006c-0.132 0.214-0.31 0.387-0.521 0.509l-0.007 0.004c-0.2 0.121-0.441 0.193-0.699 0.193-0.003 0-0.007 0-0.010-0h0.001c-0.399 0-0.739-0.138-1.023-0.415s-0.425-0.612-0.422-1.008c-0.003-0.386 0.137-0.717 0.422-0.993s0.624-0.415 1.023-0.415zM25.549 31.745l-20.098-24.98v24.967h-5.451v-31.755h6.813l25.391 31.53 0-26.445-0.002-5.072h27.479v5.072h-22.026v8.159h17.713v5.072h-17.713v8.38h22.026v5.072zM77.15 18.245l3.572 4.441-7.32 9.096h-7.153zM73.402 0.004l9.222 11.453 9.193-11.418 7.133-0.011-12.755 15.864 12.776 15.866h-7.154l-25.548-31.754zM142.881 18.174h2.415v9.305c-0.003 0.855-0.189 1.586-0.55 2.202-0.366 0.615-0.872 1.084-1.522 1.416-0.646 0.327-1.404 0.495-2.264 0.495-0.787 0-1.492-0.142-2.12-0.418s-1.126-0.691-1.492-1.237c-0.37-0.546-0.551-1.226-0.551-2.041h2.419c0.004 0.357 0.085 0.666 0.24 0.924 0.154 0.255 0.373 0.458 0.634 0.589l0.009 0.004c0.277 0.139 0.595 0.208 0.952 0.208 0.388 0 0.72-0.080 0.99-0.244 0.269-0.16 0.476-0.4 0.621-0.72 0.14-0.317 0.214-0.71 0.218-1.175zM155.234 21.813c-0.059-0.564-0.317-1.005-0.768-1.317-0.454-0.317-1.041-0.473-1.762-0.473-0.505 0-0.941 0.076-1.303 0.226-0.362 0.153-0.642 0.357-0.835 0.615s-0.288 0.553-0.296 0.884c0 0.276 0.067 0.517 0.196 0.717 0.136 0.21 0.313 0.383 0.521 0.509l0.007 0.004c0.212 0.136 0.456 0.255 0.714 0.345l0.025 0.008c0.273 0.095 0.547 0.175 0.82 0.24l1.259 0.309c0.506 0.116 0.997 0.273 1.466 0.473 0.469 0.197 0.894 0.448 1.266 0.75s0.669 0.666 0.886 1.092 0.329 0.924 0.329 1.499c0 0.775-0.199 1.456-0.602 2.045-0.402 0.586-0.982 1.045-1.743 1.376-0.757 0.328-1.673 0.495-2.751 0.495-1.041 0-1.95-0.16-2.715-0.48-0.768-0.316-1.366-0.783-1.799-1.394s-0.665-1.357-0.698-2.234h2.393c0.033 0.459 0.181 0.841 0.432 1.15 0.255 0.306 0.587 0.531 0.993 0.684 0.41 0.149 0.868 0.226 1.374 0.226 0.528 0 0.993-0.080 1.396-0.237 0.399-0.157 0.713-0.375 0.938-0.659 0.229-0.28 0.344-0.611 0.347-0.99-0.004-0.346-0.108-0.633-0.307-0.859-0.203-0.226-0.484-0.415-0.842-0.568-0.361-0.153-0.783-0.291-1.263-0.411l-1.529-0.386c-1.104-0.28-1.979-0.706-2.618-1.277-0.642-0.571-0.96-1.328-0.96-2.278 0-0.779 0.214-1.463 0.646-2.049 0.428-0.585 1.016-1.041 1.758-1.364 0.746-0.328 1.588-0.488 2.526-0.488 0.953 0 1.787 0.16 2.508 0.488 0.72 0.324 1.285 0.775 1.695 1.35s0.625 1.234 0.636 1.98z"></path>
</symbol>
<symbol id="icon-nodejs-line" viewBox="0 0 32 32">
<path d="M17.183 1.816c-0.338-0.202-0.747-0.322-1.183-0.322s-0.844 0.12-1.193 0.328l0.011-0.006-10.333 6.077c-0.693 0.413-1.151 1.159-1.151 2.011 0 0 0 0 0 0.001v-0 12.189c0 0.827 0.437 1.592 1.151 2.011l3.497 2.057c1.777 1.048 4.019-0.235 4.019-2.296v-13.537h-2.667v13.536l-3.333-1.961v-11.808l10-5.883 10 5.883v11.808l-10 5.883-2.357-1.387-1.352 2.297 2.527 1.487c0.338 0.202 0.747 0.322 1.183 0.322s0.844-0.12 1.193-0.328l-0.011 0.006 10.333-6.079c0.693-0.413 1.15-1.158 1.151-2.011v-12.189c-0-0.852-0.457-1.598-1.14-2.005l-0.011-0.006zM18.667 10c-1.817 0-3.105 0.468-3.933 1.293-0.605 0.599-0.98 1.43-0.983 2.348v0c0 0.74 0.209 1.411 0.643 1.965 0.417 0.533 0.967 0.865 1.493 1.080 0.96 0.396 2.16 0.525 3.125 0.628l0.116 0.013c1.108 0.12 1.939 0.223 2.507 0.46 0.257 0.107 0.363 0.205 0.407 0.263 0.028 0.037 0.083 0.12 0.083 0.347 0 0.352-0.12 0.579-0.497 0.793-0.463 0.263-1.28 0.463-2.511 0.463-1.22 0-2.071-0.227-2.557-0.563-0.377-0.261-0.656-0.663-0.583-1.533l-2.657-0.223c-0.144 1.719 0.479 3.088 1.723 3.949 1.135 0.787 2.627 1.036 4.075 1.036 1.436 0 2.789-0.22 3.831-0.813 1.128-0.64 1.844-1.709 1.844-3.109 0-0.743-0.207-1.415-0.636-1.973-0.413-0.539-0.963-0.875-1.491-1.096-0.971-0.407-2.187-0.537-3.157-0.641l-0.093-0.011c-1.111-0.12-1.941-0.22-2.513-0.455-0.259-0.107-0.364-0.203-0.404-0.256-0.027-0.032-0.079-0.107-0.079-0.324 0-0.103 0.031-0.292 0.2-0.46 0.163-0.163 0.665-0.515 2.049-0.515 1.32 0 2.089 0.14 2.529 0.4 0.287 0.171 0.597 0.484 0.64 1.511l2.664-0.107c-0.067-1.661-0.675-2.944-1.944-3.696-1.116-0.664-2.543-0.775-3.889-0.775z"></path>
</symbol>
<symbol id="icon-nodejs" viewBox="0 0 32 32">
<path fill="#5fa04e" style="fill: var(--color15, #5fa04e)" d="M28.578 13.813c-0 0-0 0-0 0-0.014 0-0.026 0.004-0.036 0.011l0-0-0.587 0.342c-0.021 0.013-0.035 0.037-0.035 0.064 0 0 0 0.001 0 0.001v-0 0.685c0 0.029 0.014 0.051 0.035 0.066l0.587 0.342c0.010 0.007 0.023 0.011 0.036 0.011s0.026-0.004 0.036-0.011l-0 0 0.585-0.342c0.022-0.014 0.036-0.038 0.036-0.066 0-0 0-0 0-0v0-0.684c0-0 0-0.001 0-0.001 0-0.027-0.014-0.051-0.036-0.064l-0-0-0.586-0.343c-0.010-0.007-0.023-0.011-0.036-0.011v0zM15.805 17.91c-0.107 0-0.213 0.026-0.303 0.077l-2.887 1.682c-0.183 0.109-0.303 0.305-0.303 0.53 0 0 0 0 0 0.001v-0 3.356c0 0.218 0.116 0.422 0.303 0.532l0.76 0.436c0.369 0.182 0.499 0.181 0.665 0.181 0.543 0 0.854-0.335 0.854-0.91v-3.311c-0.001-0.048-0.039-0.087-0.087-0.088h-0.369c-0.048 0.001-0.087 0.040-0.088 0.088v3.312c0 0.255-0.267 0.51-0.694 0.292l-0.789-0.459c-0.029-0.015-0.044-0.052-0.044-0.081v-3.357c0-0.029 0.015-0.065 0.044-0.080l2.886-1.674c0.022-0.015 0.058-0.015 0.087 0l2.887 1.674c0.029 0.015 0.043 0.044 0.043 0.080v3.356c0 0.036-0.014 0.066-0.043 0.081l-2.887 1.682c-0.022 0.015-0.058 0.015-0.087 0l-0.738-0.445c-0.022-0.015-0.051-0.022-0.072-0.007-0.203 0.116-0.238 0.132-0.434 0.197-0.043 0.015-0.116 0.043 0.029 0.123l0.963 0.576c0.094 0.051 0.195 0.080 0.303 0.080s0.217-0.029 0.303-0.065l2.887-1.682c0.183-0.109 0.303-0.305 0.303-0.53 0-0.001 0-0.001 0-0.002v0-3.356c0-0.218-0.116-0.422-0.303-0.531l-2.887-1.682c-0.087-0.048-0.19-0.077-0.301-0.077-0.001 0-0.002 0-0.003 0h0zM20.313 19.442c-0.308 0.001-0.557 0.251-0.557 0.559 0 0.001 0 0.001 0 0.002v-0c0 0 0 0.001 0 0.002 0 0.308 0.249 0.558 0.557 0.559h0c0.304 0 0.557-0.255 0.557-0.561-0.002-0.308-0.25-0.557-0.557-0.561h-0zM20.305 19.537c0.002-0 0.004-0 0.006-0 0.257 0 0.465 0.208 0.465 0.465 0 0 0 0.001 0 0.001v-0c0 0.255-0.21 0.474-0.471 0.474-0.253 0-0.463-0.212-0.463-0.474s0.217-0.466 0.463-0.466zM20.103 19.689v0.64h0.123v-0.254h0.108c0.044 0 0.058 0.015 0.065 0.051 0 0.008 0.021 0.168 0.021 0.197h0.13c-0.015-0.029-0.022-0.116-0.029-0.168-0.007-0.080-0.014-0.138-0.101-0.145 0.044-0.015 0.116-0.037 0.116-0.153 0-0.168-0.145-0.168-0.217-0.168zM20.212 19.791h0.101c0.037 0 0.094 0 0.094 0.087 0 0.029-0.014 0.088-0.094 0.088h-0.101zM16.594 20.294c-0.825 0-1.317 0.349-1.317 0.939 0 0.634 0.492 0.808 1.281 0.888 0.948 0.095 1.020 0.233 1.020 0.422 0 0.328-0.261 0.466-0.869 0.466-0.767 0-0.933-0.189-0.991-0.575 0-0.044-0.036-0.073-0.079-0.073h-0.376c-0.048 0.001-0.086 0.039-0.086 0.087v0c0 0.495 0.26 1.078 1.527 1.078 0.911 0 1.439-0.364 1.439-1.005 0-0.626-0.42-0.794-1.309-0.91-0.898-0.116-0.991-0.182-0.991-0.393 0-0.175 0.079-0.407 0.745-0.407 0.593 0 0.817 0.131 0.904 0.532 0.009 0.037 0.041 0.064 0.080 0.065h0.383c0.022 0 0.044-0.014 0.058-0.029 0.013-0.018 0.020-0.041 0.021-0.066v-0c-0.058-0.699-0.513-1.019-1.439-1.019z"></path>
<path fill="#333" style="fill: var(--color16, #333)" d="M21.518 6.166c-0.001 0-0.002-0-0.003-0-0.031 0-0.061 0.008-0.086 0.023l0.001-0c-0.055 0.033-0.092 0.092-0.094 0.159v4.732c0 0.043-0.023 0.088-0.066 0.117-0.019 0.010-0.041 0.016-0.065 0.016s-0.046-0.006-0.066-0.017l0.001 0-0.767-0.444c-0.053-0.031-0.117-0.049-0.185-0.049s-0.132 0.018-0.187 0.050l0.002-0.001-3.067 1.784c-0.112 0.064-0.187 0.183-0.188 0.32v3.56c0 0.131 0.073 0.255 0.188 0.32l3.067 1.784c0.053 0.031 0.117 0.049 0.185 0.049s0.132-0.018 0.186-0.050l-0.002 0.001 3.067-1.784c0.116-0.066 0.188-0.189 0.188-0.32v-8.874c0-0.138-0.073-0.263-0.188-0.328l-1.83-1.026c-0.027-0.014-0.059-0.022-0.093-0.022h-0zM3.422 10.607c-0.058 0-0.115 0.021-0.166 0.050l-3.067 1.777c-0.113 0.065-0.188 0.186-0.188 0.324 0 0.001 0 0.002 0 0.003v-0l0.007 4.776c0 0.066 0.036 0.131 0.094 0.16 0.025 0.017 0.057 0.027 0.090 0.027s0.065-0.010 0.091-0.027l-0.001 0 1.823-1.048c0.116-0.066 0.188-0.189 0.188-0.32v-2.235c0-0.131 0.072-0.255 0.188-0.32l0.774-0.451c0.058-0.037 0.123-0.051 0.188-0.051s0.13 0.014 0.181 0.051l0.774 0.451c0.116 0.066 0.188 0.19 0.188 0.32v2.235c0 0.131 0.072 0.255 0.188 0.32l1.809 1.048c0.027 0.017 0.059 0.027 0.094 0.027s0.067-0.010 0.095-0.028l-0.001 0c0.056-0.031 0.094-0.090 0.094-0.158 0-0.001 0-0.002-0-0.003v0-4.776c0-0.131-0.072-0.255-0.189-0.321l-3.060-1.784c-0.048-0.026-0.104-0.044-0.164-0.050l-0.002-0zM28.588 10.66c-0.063 0-0.126 0.017-0.184 0.050l-3.068 1.783c-0.116 0.066-0.188 0.19-0.188 0.321v3.56c0 0.131 0.072 0.255 0.188 0.32l3.046 1.747c0.052 0.031 0.114 0.049 0.181 0.049s0.129-0.018 0.183-0.050l-0.002 0.001 1.845-1.033c0.056-0.031 0.094-0.090 0.094-0.158 0-0.001 0-0.002-0-0.003v0c0-0.001 0-0.001 0-0.002 0-0.068-0.037-0.127-0.093-0.158l-0.001-0-3.082-1.784c-0.055-0.033-0.092-0.092-0.094-0.16v-1.114c0-0.001 0-0.001 0-0.002 0-0.068 0.037-0.127 0.093-0.158l0.001-0 0.962-0.553c0.027-0.017 0.059-0.027 0.094-0.027s0.067 0.010 0.095 0.028l-0.001-0 0.962 0.553c0.056 0.033 0.093 0.092 0.095 0.16v0.874c0 0.066 0.036 0.131 0.094 0.16 0.027 0.017 0.059 0.028 0.094 0.028s0.068-0.010 0.095-0.028l-0.001 0 1.823-1.070c0.109-0.064 0.181-0.181 0.181-0.315 0-0.002 0-0.004-0-0.006v0-0.866c0-0.131-0.073-0.254-0.181-0.32l-3.046-1.776c-0.053-0.031-0.117-0.049-0.184-0.050h-0zM20.189 13.319c0.016 0 0.033 0.004 0.047 0.011l1.049 0.611c0.029 0.014 0.044 0.050 0.044 0.080v1.223c0 0.037-0.015 0.066-0.044 0.081l-1.049 0.611c-0.014 0.007-0.030 0.011-0.047 0.011s-0.033-0.004-0.048-0.011l0.001 0-1.049-0.611c-0.029-0.014-0.044-0.051-0.044-0.081v-1.223c0-0.037 0.015-0.065 0.044-0.080l1.049-0.611c0.013-0.007 0.029-0.011 0.046-0.011 0 0 0.001 0 0.001 0h-0z"></path>
<path fill="#000" style="fill: var(--color7, #000)" d="M11.995 10.723c-0.053-0.031-0.117-0.049-0.184-0.049s-0.132 0.018-0.186 0.050l0.002-0.001-3.046 1.769c-0.109 0.064-0.181 0.181-0.181 0.315 0 0.002 0 0.004 0 0.005v-0 3.545c0 0.131 0.072 0.255 0.181 0.32l3.046 1.769c0.053 0.031 0.117 0.049 0.184 0.049s0.132-0.018 0.186-0.050l-0.002 0.001 3.046-1.769c0.116-0.066 0.181-0.189 0.181-0.32v-3.545c0-0.131-0.072-0.255-0.181-0.32z"></path>
<path fill="#000" style="fill: var(--color7, #000)" d="M15.049 12.492l-3.060-1.769c-0.027-0.014-0.058-0.026-0.090-0.035l-0.004-0.001-3.429 5.904c0.029 0.037 0.065 0.066 0.101 0.087l3.061 1.769c0.087 0.051 0.188 0.066 0.282 0.036l3.22-5.926c-0.021-0.027-0.048-0.050-0.078-0.065l-0.001-0.001z"></path>
<path fill="#000" style="fill: var(--color7, #000)" d="M15.049 16.678c0.087-0.051 0.152-0.138 0.181-0.233l-3.35-5.766c-0.086-0.014-0.181-0.007-0.26 0.044l-3.039 1.762 3.277 6.013c0.043-0.007 0.094-0.022 0.137-0.044z"></path>
</symbol>
<symbol id="icon-javascript" viewBox="0 0 32 32">
<path d="M0 3.5c0-1.932 1.568-3.5 3.5-3.5h25c1.932 0 3.5 1.568 3.5 3.5v4c0 0.828-0.672 1.5-1.5 1.5s-1.5-0.672-1.5-1.5v0-4c0-0.276-0.224-0.5-0.5-0.5v0h-25c-0.276 0-0.5 0.224-0.5 0.5v0 25c0 0.276 0.224 0.5 0.5 0.5h27c0.828 0 1.5 0.672 1.5 1.5s-0.672 1.5-1.5 1.5v0h-27c-1.933 0-3.5-1.567-3.5-3.5v0zM16.5 11.5c0.828 0 1.5 0.672 1.5 1.5v0 8c0 2.010-0.552 3.516-1.69 4.464-1.086 0.906-2.402 1.036-3.31 1.036-0.828 0-1.5-0.672-1.5-1.5s0.672-1.5 1.5-1.5v0c0.692 0 1.126-0.12 1.39-0.34 0.212-0.176 0.61-0.67 0.61-2.16v-8c0-0.828 0.672-1.5 1.5-1.5v0zM22.552 13.16c0.836-0.996 2.15-1.66 3.948-1.66 1.67 0 2.93 0.572 3.78 1.47 0.241 0.265 0.388 0.619 0.388 1.007 0 0.828-0.672 1.5-1.5 1.5-0.418 0-0.796-0.171-1.068-0.447l-0-0c-0.22-0.232-0.66-0.53-1.6-0.53-1 0-1.44 0.336-1.652 0.59-0.204 0.247-0.333 0.562-0.348 0.907l-0 0.003c0 0.208 0.086 0.6 0.348 0.91 0.214 0.254 0.65 0.59 1.652 0.59 0.152 0 0.298 0.022 0.436 0.064 1.326 0.188 2.328 0.78 3.012 1.596 0.788 0.94 1.052 2.048 1.052 2.84s-0.264 1.9-1.052 2.84c-0.836 0.996-2.15 1.66-3.948 1.66-1.67 0-2.93-0.572-3.78-1.47-0.241-0.265-0.388-0.619-0.388-1.007 0-0.828 0.672-1.5 1.5-1.5 0.418 0 0.796 0.171 1.068 0.447l0 0c0.22 0.232 0.66 0.53 1.6 0.53 1 0 1.44-0.336 1.652-0.59 0.204-0.247 0.333-0.562 0.348-0.907l0-0.003c0-0.208-0.086-0.6-0.348-0.91-0.214-0.254-0.65-0.59-1.652-0.59-0.001 0-0.002 0-0.003 0-0.154 0-0.303-0.023-0.444-0.067l0.011 0.003c-1.326-0.19-2.328-0.78-3.012-1.596-0.642-0.764-1.037-1.755-1.052-2.837l-0-0.003c0-0.792 0.264-1.9 1.052-2.84z"></path>
</symbol>
<symbol id="icon-React" viewBox="0 0 32 32">
<path d="M16.001 18c-1.105 0-2-0.895-2-2s0.895-2 2-2v0c1.105 0 2 0.895 2 2s-0.895 2-2 2v0zM15.297 21.992c0.233 0.281 0.467 0.552 0.704 0.812 0.236-0.26 0.471-0.531 0.704-0.812-0.21 0.005-0.456 0.007-0.704 0.007s-0.494-0.003-0.741-0.008l0.037 0.001zM12.637 21.825c-1.177-0.123-2.214-0.296-3.231-0.524l0.184 0.035c-0.083 0.356-0.162 0.817-0.22 1.284l-0.007 0.070c-0.253 2.111 0.1 3.393 0.637 3.703 0.537 0.311 1.824-0.025 3.527-1.299 0.351-0.263 0.704-0.555 1.059-0.873-0.66-0.722-1.3-1.502-1.895-2.317l-0.054-0.078zM22.412 21.336c-0.832 0.194-1.87 0.366-2.926 0.479l-0.121 0.011c-0.65 0.892-1.289 1.673-1.968 2.416l0.019-0.021c0.355 0.32 0.708 0.611 1.059 0.873 1.703 1.273 2.989 1.609 3.527 1.299 0.537-0.309 0.889-1.592 0.639-3.703-0.066-0.541-0.145-1.001-0.245-1.454l0.019 0.101zM24.347 20.819c0.769 3.519 0.365 6.32-1.344 7.307s-4.337-0.064-7-2.489c-2.663 2.425-5.291 3.475-7 2.488s-2.113-3.787-1.345-7.307c-3.432-1.093-5.655-2.844-5.655-4.817s2.223-3.724 5.655-4.817c-0.768-3.52-0.364-6.32 1.345-7.307s4.337 0.063 7 2.488c2.663-2.425 5.291-3.475 7-2.488s2.113 3.787 1.345 7.307c3.429 1.093 5.652 2.844 5.652 4.817s-2.224 3.725-5.655 4.819zM14.585 7.78c-0.353-0.319-0.707-0.611-1.057-0.873-1.703-1.273-2.989-1.609-3.527-1.299-0.537 0.309-0.889 1.592-0.639 3.704 0.053 0.435 0.128 0.887 0.227 1.353 0.833-0.194 1.871-0.367 2.927-0.48l0.121-0.011c0.633-0.871 1.287-1.672 1.949-2.395zM19.367 10.175c1.176 0.124 2.214 0.296 3.23 0.525l-0.184-0.035c0.1-0.467 0.176-0.92 0.227-1.353 0.253-2.112-0.1-3.395-0.637-3.704-0.537-0.311-1.824 0.025-3.527 1.299-0.351 0.263-0.704 0.555-1.059 0.873 0.663 0.723 1.316 1.524 1.949 2.395zM16.707 10.008c-0.233-0.28-0.468-0.552-0.704-0.812-0.236 0.26-0.471 0.531-0.704 0.812 0.21-0.005 0.456-0.007 0.704-0.007s0.494 0.003 0.741 0.008l-0.037-0.001zM11.165 19.605c-0.159-0.249-0.392-0.647-0.618-1.050l-0.086-0.168c-0.127 0.343-0.244 0.68-0.351 1.016 0.343 0.073 0.695 0.141 1.053 0.203zM13.74 19.917c0.677 0.053 1.466 0.084 2.261 0.084s1.584-0.030 2.365-0.090l-0.104 0.006c0.771-1.116 1.524-2.399 2.181-3.737l0.080-0.18c-0.737-1.518-1.489-2.801-2.328-4.020l0.067 0.103c-0.677-0.053-1.466-0.084-2.261-0.084s-1.585 0.030-2.365 0.090l0.104-0.006c-0.772 1.116-1.524 2.399-2.182 3.738l-0.080 0.18c0.737 1.518 1.49 2.801 2.329 4.021l-0.067-0.103zM21.543 13.613c0.127-0.343 0.244-0.68 0.351-1.015-0.194-0.049-0.55-0.12-0.91-0.183l-0.144-0.021c0.158 0.247 0.391 0.645 0.616 1.049l0.087 0.17zM8.175 13.116c-0.453 0.147-0.883 0.307-1.285 0.48-1.953 0.837-2.888 1.784-2.888 2.404s0.933 1.567 2.888 2.404c0.403 0.173 0.832 0.333 1.285 0.48 0.296-0.933 0.663-1.901 1.1-2.884-0.352-0.755-0.725-1.71-1.045-2.689l-0.055-0.195zM10.108 12.599c0.108 0.333 0.225 0.672 0.352 1.013 0.312-0.571 0.545-0.969 0.786-1.361l-0.082 0.144c-0.36 0.061-0.712 0.129-1.055 0.204zM23.829 18.884c0.453-0.147 0.883-0.307 1.285-0.48 1.952-0.837 2.885-1.784 2.885-2.404s-0.933-1.567-2.888-2.404c-0.403-0.173-0.833-0.333-1.287-0.48-0.293 0.933-0.661 1.901-1.099 2.884 0.437 0.983 0.804 1.951 1.1 2.884zM21.893 19.403c-0.165-0.522-0.284-0.859-0.411-1.192l0.059 0.177c-0.312 0.573-0.546 0.971-0.787 1.364l0.083-0.145c0.36-0.061 0.712-0.129 1.055-0.203z"></path>
</symbol>
<symbol id="icon-case" viewBox="0 0 32 32">
<path d="M13 2c-1.657 0-3 1.343-3 3v0 1h-7c-1.657 0-3 1.343-3 3v0 2.768l15.228 4.060c0.232 0.064 0.497 0.101 0.772 0.101s0.54-0.037 0.793-0.106l-0.021 0.005 15.228-4.060v-2.768c0-1.657-1.343-3-3-3v0h-7v-1c0-1.657-1.343-3-3-3v0zM13 4h6c0.552 0 1 0.448 1 1v0 1h-8v-1c0-0.552 0.448-1 1-1v0z"></path>
<path d="M0 25c0 1.657 1.343 3 3 3v0h26c1.657 0 3-1.343 3-3v0-11.3l-15.742 4.194c-0.077 0.021-0.166 0.034-0.258 0.034s-0.181-0.012-0.265-0.035l0.007 0.002-15.742-4.194z"></path>
</symbol>
<symbol id="icon-next-page" viewBox="0 0 32 32">
<path d="M29.333 4h-22.667c-1.473 0-2.667 1.194-2.667 2.667v0 5.333h2.667v-5.333h22.667v18.667h-22.667v-5.333h-2.667v5.333c0 1.473 1.194 2.667 2.667 2.667v0h22.667c1.473 0 2.667-1.194 2.667-2.667v0-18.667c0-1.473-1.194-2.667-2.667-2.667v0zM9.333 20v-2.667h-9.333v-2.667h9.333v-2.667l5.333 4zM26.667 17.333h-9.333v-2.667h9.333zM26.667 12h-9.333v-2.667h9.333zM22.667 22.667h-5.333v-2.667h5.333z"></path>
</symbol>
<symbol id="icon-back" viewBox="0 0 32 32">
<path d="M7.771 9.333l3.381 3.38-1.885 1.887-6.6-6.6 6.6-6.6 1.885 1.887-3.381 3.38h9.563c5.891 0 10.667 4.776 10.667 10.667s-4.776 10.667-10.667 10.667v0h-12v-2.667h12c4.418 0 8-3.582 8-8s-3.582-8-8-8v0z"></path>
</symbol>
<symbol id="icon-user" viewBox="0 0 32 32">
<path d="M12 8.333c-2.025 0-3.667 1.642-3.667 3.667s1.642 3.667 3.667 3.667v0c2.025 0 3.667-1.642 3.667-3.667s-1.642-3.667-3.667-3.667v0zM10.333 12c0-0.92 0.746-1.667 1.667-1.667s1.667 0.746 1.667 1.667v0c0 0.92-0.746 1.667-1.667 1.667s-1.667-0.746-1.667-1.667v0zM12 16.333c-1.595 0-3.087 0.32-4.219 0.887-1.071 0.536-2.115 1.461-2.115 2.78v0.084c-0.003 0.68-0.005 1.827 1.080 2.612 0.504 0.364 1.169 0.597 1.993 0.745 0.831 0.149 1.896 0.225 3.26 0.225s2.429-0.076 3.26-0.225c0.824-0.148 1.489-0.381 1.993-0.747 1.085-0.785 1.083-1.931 1.080-2.612v-0.083c0-1.32-1.044-2.244-2.115-2.78-1.132-0.565-2.624-0.887-4.219-0.887zM7.667 20c0-0.153 0.151-0.561 1.009-0.991 0.8-0.4 1.973-0.676 3.324-0.676s2.525 0.276 3.324 0.676c0.859 0.429 1.009 0.837 1.009 0.991 0 0.805-0.052 0.929-0.253 1.076-0.163 0.117-0.497 0.275-1.173 0.397-0.669 0.12-1.604 0.193-2.907 0.193s-2.237-0.073-2.907-0.193c-0.676-0.123-1.011-0.28-1.173-0.397-0.203-0.147-0.253-0.271-0.253-1.076z"></path>
<path d="M25.333 17c0.552 0 1-0.448 1-1s-0.448-1-1-1v0h-5.333c-0.552 0-1 0.448-1 1s0.448 1 1 1v0zM26.333 12c0 0.552-0.448 1-1 1v0h-6.667c-0.552 0-1-0.448-1-1s0.448-1 1-1v0h6.667c0.552 0 1 0.448 1 1v0zM25.333 21c0.552 0 1-0.448 1-1s-0.448-1-1-1v0h-4c-0.552 0-1 0.448-1 1s0.448 1 1 1v0z"></path>
<path d="M13.259 4.333h5.483c2.451 0 4.392 0 5.911 0.204 1.563 0.211 2.828 0.653 3.827 1.651 0.997 0.999 1.44 2.264 1.651 3.827 0.204 1.52 0.204 3.46 0.204 5.911v0.149c0 2.451 0 4.392-0.204 5.911-0.211 1.563-0.653 2.828-1.651 3.827-0.999 0.997-2.264 1.44-3.827 1.651-1.52 0.204-3.46 0.204-5.911 0.204h-5.481c-2.451 0-4.392 0-5.911-0.204-1.563-0.211-2.828-0.653-3.827-1.651-0.997-0.999-1.44-2.264-1.651-3.827-0.204-1.52-0.204-3.46-0.204-5.911v-0.149c0-2.451 0-4.392 0.204-5.911 0.211-1.563 0.653-2.828 1.651-3.827 0.999-0.997 2.264-1.44 3.827-1.651 1.52-0.204 3.46-0.204 5.911-0.204zM7.613 6.52c-1.341 0.18-2.115 0.519-2.68 1.083-0.563 0.564-0.901 1.337-1.081 2.679-0.184 1.371-0.187 3.176-0.187 5.719s0.003 4.349 0.187 5.72c0.18 1.34 0.519 2.113 1.083 2.677s1.337 0.903 2.679 1.083c1.371 0.184 3.176 0.187 5.719 0.187h5.333c2.543 0 4.349-0.003 5.72-0.187 1.34-0.18 2.113-0.519 2.677-1.083s0.903-1.337 1.083-2.679c0.184-1.371 0.187-3.176 0.187-5.719s-0.003-4.348-0.187-5.72c-0.18-1.34-0.519-2.113-1.083-2.677s-1.337-0.903-2.679-1.083c-1.369-0.184-3.176-0.187-5.719-0.187h-5.333c-2.543 0-4.348 0.003-5.72 0.187z"></path>
</symbol>
<symbol id="icon-menu" viewBox="0 0 32 32">
<path d="M3.2 12.8c0-0.884 0.716-1.6 1.6-1.6v0h16.493c0.884 0 1.6 0.716 1.6 1.6s-0.716 1.6-1.6 1.6v0h-16.493c-0.884 0-1.6-0.716-1.6-1.6v0zM3.2 6.4c0-0.884 0.716-1.6 1.6-1.6v0h22.4c0.884 0 1.6 0.716 1.6 1.6s-0.716 1.6-1.6 1.6v0h-22.4c-0.884 0-1.6-0.716-1.6-1.6v0zM3.2 19.2c0-0.884 0.716-1.6 1.6-1.6v0h22.4c0.884 0 1.6 0.716 1.6 1.6s-0.716 1.6-1.6 1.6v0h-22.4c-0.884 0-1.6-0.716-1.6-1.6v0zM3.2 25.6c0-0.884 0.716-1.6 1.6-1.6v0h16.493c0.884 0 1.6 0.716 1.6 1.6s-0.716 1.6-1.6 1.6v0h-16.493c-0.884 0-1.6-0.716-1.6-1.6v0z"></path>
</symbol>
<symbol id="icon-screen" viewBox="0 0 32 32">
<path d="M4.432 3.198c-2.424 0-4.389 1.965-4.389 4.389v0 3.371c0 1.262 1.023 2.286 2.286 2.286s2.286-1.023 2.286-2.286v0-3.189h22.773v16.459h-9.76c-1.262 0-2.286 1.023-2.286 2.286s1.023 2.286 2.286 2.286v0h9.943c2.424 0 4.389-1.965 4.389-4.389v0-16.825c0-2.424-1.965-4.389-4.389-4.389v0zM0.043 17.095c0-0.947 0.767-1.714 1.714-1.714v0c0.001 0 0.001 0 0.002 0 6.353 0 11.504 5.151 11.504 11.504v0c0 0.947-0.768 1.714-1.714 1.714s-1.714-0.767-1.714-1.714v0c-0.001-4.459-3.616-8.073-8.075-8.073-0.001 0-0.002 0-0.002 0h0c-0.947 0-1.714-0.767-1.714-1.714v0zM0.043 23.214c0-0.947 0.767-1.714 1.714-1.714v0c0.001 0 0.001 0 0.002 0 2.974 0 5.385 2.411 5.385 5.385v0c0 0.947-0.768 1.714-1.714 1.714s-1.714-0.767-1.714-1.714v0c0-1.081-0.876-1.957-1.957-1.957-0.001 0-0.002 0-0.002 0h0c-0.947 0-1.714-0.767-1.714-1.714v0z">
</path>
</symbol>
<symbol id="icon-link" viewBox="0 0 32 32">
<path d="M15.55 6.55l2.5-2.5c1.267-1.267 3.017-2.050 4.95-2.050 3.866 0 7 3.134 7 7 0 1.933-0.784 3.683-2.050 4.95l-5 5c-1.267 1.267-3.017 2.050-4.95 2.050s-3.683-0.784-4.95-2.050v0c-0.25-0.267-0.403-0.627-0.403-1.023 0-0.414 0.168-0.789 0.439-1.061v0c0.271-0.271 0.646-0.439 1.061-0.439 0.396 0 0.756 0.153 1.024 0.404l-0.001-0.001c0.724 0.725 1.725 1.173 2.83 1.173s2.106-0.448 2.83-1.173l5-5c0.675-0.715 1.090-1.682 1.090-2.746 0-2.211-1.793-4.004-4.004-4.004-1.064 0-2.031 0.415-2.748 1.092l0.002-0.002-2.5 2.5c-0.267 0.25-0.627 0.403-1.023 0.403-0.414 0-0.789-0.168-1.061-0.439v0c-0.271-0.271-0.439-0.646-0.439-1.061 0-0.396 0.153-0.756 0.404-1.024l-0.001 0.001zM6.17 25.83c0.724 0.725 1.725 1.173 2.83 1.173s2.106-0.448 2.83-1.173l2.5-2.5c0.267-0.25 0.627-0.403 1.023-0.403 0.414 0 0.789 0.168 1.061 0.439v0c0.271 0.271 0.439 0.646 0.439 1.061 0 0.396-0.153 0.756-0.404 1.024l0.001-0.001-2.5 2.5c-1.267 1.267-3.017 2.050-4.95 2.050-3.866 0-7-3.134-7-7 0-1.933 0.784-3.683 2.050-4.95l5-5c1.267-1.267 3.017-2.050 4.95-2.050s3.683 0.784 4.95 2.050v0c0.25 0.267 0.403 0.627 0.403 1.023 0 0.414-0.168 0.789-0.439 1.061v0c-0.271 0.271-0.646 0.439-1.061 0.439-0.396 0-0.756-0.153-1.024-0.404l0.001 0.001c-0.724-0.725-1.725-1.173-2.83-1.173s-2.106 0.448-2.83 1.173l-5 5c-0.725 0.724-1.173 1.725-1.173 2.83s0.448 2.106 1.173 2.83l0 0z"></path>
</symbol>
<symbol id="icon-typescript" viewBox="0 0 32 32">
<path fill="#007acc" style="fill: var(--color5, #007acc)" d="M0 16v16h32v-32h-32zM25.788 14.725c0.813 0.203 1.432 0.564 2.001 1.153 0.295 0.315 0.732 0.888 0.767 1.027 0.011 0.040-1.381 0.973-2.224 1.497-0.031 0.020-0.153-0.112-0.289-0.315-0.413-0.6-0.844-0.859-1.504-0.904-0.971-0.067-1.595 0.441-1.589 1.289-0.001 0.015-0.001 0.032-0.001 0.050 0 0.201 0.051 0.391 0.14 0.557l-0.003-0.006c0.213 0.441 0.611 0.707 1.853 1.244 2.292 0.987 3.272 1.636 3.881 2.56 0.68 1.031 0.833 2.677 0.371 3.901-0.507 1.331-1.767 2.235-3.54 2.533-0.548 0.097-1.848 0.083-2.437-0.024-1.285-0.229-2.504-0.864-3.256-1.697-0.295-0.324-0.869-1.173-0.833-1.233 0.015-0.021 0.147-0.103 0.293-0.188 0.144-0.081 0.681-0.392 1.189-0.687l0.92-0.533 0.193 0.285c0.269 0.411 0.857 0.975 1.213 1.163 1.021 0.539 2.423 0.463 3.113-0.157 0.257-0.217 0.419-0.54 0.419-0.9 0-0.021-0.001-0.042-0.002-0.062l0 0.003c0-0.371-0.047-0.533-0.24-0.813-0.248-0.355-0.756-0.653-2.199-1.28-1.651-0.711-2.361-1.152-3.012-1.853-0.392-0.445-0.694-0.981-0.871-1.57l-0.008-0.030c-0.121-0.452-0.152-1.585-0.056-2.041 0.34-1.596 1.544-2.707 3.281-3.037 0.564-0.107 1.875-0.067 2.428 0.071zM18.276 16.061l0.011 1.311h-4.167v11.835h-2.947v-11.835h-4.163v-1.285c0-0.712 0.015-1.307 0.035-1.32 0.016-0.021 2.551-0.032 5.623-0.027l5.593 0.016z"></path>
</symbol>
<symbol id="icon-html5" viewBox="0 0 32 32">
<path fill="#e34f26" style="fill: var(--color17, #e34f26)" d="M2 0h28l-2.547 28.751-11.484 3.249-11.419-3.251zM11.375 13l-0.309-3.624 13.412 0.004 0.307-3.496-17.568-0.004 0.931 10.68h12.168l-0.435 4.568-3.88 1.072-3.94-1.080-0.251-2.813h-3.479l0.44 5.561 7.229 1.933 7.172-1.924 0.992-10.876z"></path>
</symbol>
<symbol id="icon-css3" viewBox="0 0 32 32">
<path fill="#1572b6" style="fill: var(--color18, #1572b6)" d="M2 0h28l-2.547 28.751-11.484 3.249-11.42-3.251zM24.787 5.884l-17.573-0.004 0.284 3.496 13.5 0.003-0.34 3.621h-8.853l0.32 3.431h8.243l-0.488 4.697-3.88 1.072-3.941-1.080-0.251-2.813h-3.48l0.387 5.14 7.287 2.271 7.164-2.040z"></path>
</symbol>
<symbol id="icon-node-dot-js" viewBox="0 0 32 32">
<path fill="#393" style="fill: var(--color19, #393)" d="M15.997 32c-0.428 0-0.855-0.112-1.229-0.329l-3.915-2.316c-0.584-0.327-0.299-0.443-0.107-0.511 0.78-0.271 0.937-0.333 1.771-0.805 0.087-0.049 0.201-0.031 0.291 0.023l3.008 1.785c0.109 0.060 0.263 0.060 0.363 0l11.727-6.768c0.109-0.063 0.179-0.188 0.179-0.317v-13.533c0-0.132-0.071-0.256-0.183-0.323l-11.721-6.763c-0.108-0.063-0.252-0.063-0.361 0l-11.719 6.764c-0.113 0.065-0.185 0.193-0.185 0.321v13.533c0 0.129 0.072 0.252 0.185 0.313l3.212 1.856c1.743 0.872 2.811-0.155 2.811-1.187v-13.361c0-0.189 0.152-0.337 0.341-0.337h1.487c0.185 0 0.34 0.149 0.34 0.337v13.361c0 2.327-1.267 3.66-3.472 3.66-0.677 0-1.212 0-2.701-0.735l-3.077-1.769c-0.76-0.439-1.229-1.26-1.229-2.139v-13.533c0-0.879 0.471-1.7 1.229-2.137l11.727-6.776c0.743-0.42 1.728-0.42 2.464 0l11.725 6.776c0.76 0.439 1.232 1.259 1.232 2.137v13.533c0 0.879-0.472 1.697-1.232 2.139l-11.725 6.771c-0.373 0.217-0.799 0.329-1.233 0.329zM25.465 18.657c0-2.533-1.712-3.208-5.316-3.684-3.641-0.481-4.012-0.731-4.012-1.583 0-0.704 0.313-1.644 3.011-1.644 2.409 0 3.297 0.519 3.663 2.143 0.032 0.153 0.172 0.265 0.329 0.265h1.521c0.095 0 0.184-0.041 0.248-0.108 0.064-0.072 0.099-0.164 0.089-0.261-0.236-2.797-2.095-4.101-5.851-4.101-3.344 0-5.339 1.411-5.339 3.777 0 2.567 1.984 3.276 5.193 3.593 3.84 0.376 4.137 0.937 4.137 1.692 0 1.311-1.052 1.869-3.523 1.869-3.103 0-3.785-0.779-4.015-2.323-0.027-0.165-0.168-0.287-0.337-0.287h-1.516c-0.188 0-0.339 0.149-0.339 0.337 0 1.976 1.075 4.331 6.207 4.331 3.717 0.001 5.848-1.461 5.848-4.017z"></path>
</symbol>
<symbol id="icon-github" viewBox="0 0 32 32">
<path d="M16 0.396c-8.84 0-16 7.164-16 16 0 7.071 4.584 13.067 10.94 15.18 0.8 0.151 1.093-0.344 1.093-0.769 0-0.38-0.013-1.387-0.020-2.72-4.451 0.965-5.389-2.147-5.389-2.147-0.728-1.847-1.78-2.34-1.78-2.34-1.449-0.992 0.112-0.972 0.112-0.972 1.607 0.112 2.451 1.648 2.451 1.648 1.427 2.447 3.745 1.74 4.66 1.331 0.144-1.035 0.556-1.74 1.013-2.14-3.553-0.4-7.288-1.776-7.288-7.907 0-1.747 0.62-3.173 1.647-4.293-0.18-0.404-0.72-2.031 0.14-4.235 0 0 1.34-0.429 4.4 1.64 1.28-0.356 2.64-0.532 4-0.54 1.36 0.008 2.72 0.184 4 0.54 3.040-2.069 4.38-1.64 4.38-1.64 0.86 2.204 0.32 3.831 0.16 4.235 1.020 1.12 1.64 2.547 1.64 4.293 0 6.147-3.74 7.5-7.3 7.893 0.56 0.48 1.080 1.461 1.080 2.96 0 2.141-0.020 3.861-0.020 4.381 0 0.42 0.28 0.92 1.1 0.76 6.401-2.099 10.981-8.099 10.981-15.159 0-8.836-7.164-16-16-16z"></path>
</symbol>
<symbol id="icon-gmail" viewBox="0 0 32 32">
<path fill="#d14836" style="fill: var(--color20, #d14836)" d="M32 6v20c0 1.133-0.867 2-2 2h-2v-18.151l-12 8.617-12-8.617v18.151h-2c-1.135 0-2-0.867-2-2v-20c0-0.567 0.216-1.067 0.575-1.424 0.359-0.363 0.86-0.576 1.425-0.576h0.667l13.333 9.667 13.333-9.667h0.667c0.567 0 1.067 0.216 1.425 0.576 0.36 0.357 0.575 0.857 0.575 1.424z"></path>
</symbol>
<symbol id="icon-github1" viewBox="0 0 32 32">
<path d="M16 0.396c-8.84 0-16 7.164-16 16 0 7.071 4.584 13.067 10.94 15.18 0.8 0.151 1.093-0.344 1.093-0.769 0-0.38-0.013-1.387-0.020-2.72-4.451 0.965-5.389-2.147-5.389-2.147-0.728-1.847-1.78-2.34-1.78-2.34-1.449-0.992 0.112-0.972 0.112-0.972 1.607 0.112 2.451 1.648 2.451 1.648 1.427 2.447 3.745 1.74 4.66 1.331 0.144-1.035 0.556-1.74 1.013-2.14-3.553-0.4-7.288-1.776-7.288-7.907 0-1.747 0.62-3.173 1.647-4.293-0.18-0.404-0.72-2.031 0.14-4.235 0 0 1.34-0.429 4.4 1.64 1.28-0.356 2.64-0.532 4-0.54 1.36 0.008 2.72 0.184 4 0.54 3.040-2.069 4.38-1.64 4.38-1.64 0.86 2.204 0.32 3.831 0.16 4.235 1.020 1.12 1.64 2.547 1.64 4.293 0 6.147-3.74 7.5-7.3 7.893 0.56 0.48 1.080 1.461 1.080 2.96 0 2.141-0.020 3.861-0.020 4.381 0 0.42 0.28 0.92 1.1 0.76 6.401-2.099 10.981-8.099 10.981-15.159 0-8.836-7.164-16-16-16z"></path>
</symbol>
<symbol id="icon-linkedin" viewBox="0 0 32 32">
<path fill="#0077b5" style="fill: var(--color21, #0077b5)" d="M27.263 27.269h-4.739v-7.425c0-1.771-0.036-4.049-2.469-4.049-2.471 0-2.848 1.927-2.848 3.919v7.556h-4.739v-15.269h4.552v2.081h0.061c0.636-1.2 2.183-2.467 4.493-2.467 4.801 0 5.689 3.16 5.689 7.273zM7.116 9.911c-1.525 0-2.751-1.235-2.751-2.753 0-1.517 1.227-2.751 2.751-2.751 1.52 0 2.752 1.233 2.752 2.751 0 1.519-1.233 2.753-2.752 2.753zM9.492 27.269h-4.752v-15.269h4.752zM29.633 0h-27.272c-1.305 0-2.361 1.032-2.361 2.305v27.389c0 1.275 1.056 2.305 2.361 2.305h27.268c1.304 0 2.371-1.031 2.371-2.305v-27.389c0-1.273-1.067-2.305-2.371-2.305z"></path>
</symbol>
<symbol id="icon-html" viewBox="0 0 32 32">
<path d="M19 13h10.006c1.654 0 2.994 1.343 2.994 2.999v7.002c0 1.657-1.341 2.999-2.994 2.999h-10.006v2.009c0 1.093-0.894 1.991-1.997 1.991h-15.005c-1.107 0-1.997-0.899-1.997-2.007v-22.985c0-1.109 0.897-2.007 2.003-2.007h10.997l6 7v3zM18 26h-12.006c-1.654 0-2.994-1.343-2.994-2.999v-7.002c0-1.657 1.341-2.999 2.994-2.999h12.006v-2h-4.002c-1.103 0-1.998-0.887-1.998-2.006v-4.994h-10.004c-0.55 0-0.996 0.455-0.996 0.995v23.009c0 0.55 0.455 0.995 1 0.995h15c0.552 0 1-0.445 1-0.993v-2.007zM13 4.5v4.491c0 0.557 0.451 1.009 0.997 1.009h3.703l-4.7-5.5zM6.007 14c-1.109 0-2.007 0.9-2.007 1.992v7.016c0 1.1 0.898 1.992 2.007 1.992h22.985c1.109 0 2.007-0.9 2.007-1.992v-7.016c0-1.1-0.898-1.992-2.007-1.992h-22.985zM29 22v1h-5v-7h1v6h4zM14 17v6h1v-6h2v-1h-5v1h2zM10 19v-3h1v7h-1v-3h-3v3h-1v-7h1v3h3zM20.5 19l-1.5-3h-1v7h1v-5l1 2h1l1-2v5h1v-7h-1l-1.5 3z"></path>
</symbol>
<symbol id="icon-file-html1" viewBox="0 0 32 32">
<path d="M19 26v2.003c0 1.107-0.894 1.997-1.997 1.997h-15.005c-1.107 0-1.997-0.899-1.997-2.007v-22.985c0-1.109 0.899-2.007 2.009-2.007h9.991v6.002c0 1.111 0.898 1.998 2.006 1.998h4.994v2h-12.993c-1.661 0-3.007 1.342-3.007 2.999v7.002c0 1.656 1.336 2.999 3.007 2.999h12.993zM13 3v5.997c0 0.554 0.451 1.003 0.991 1.003h5.009l-6-7zM6.007 14h22.985c1.109 0 2.007 0.892 2.007 1.992v7.016c0 1.092-0.899 1.992-2.007 1.992h-22.985c-1.109 0-2.007-0.892-2.007-1.992v-7.016c0-1.092 0.899-1.992 2.007-1.992zM29 22h-4v-6h-1v7h5v-1zM14 17v6h1v-6h2v-1h-5v1h2zM10 19h-3v-3h-1v7h1v-3h3v3h1v-7h-1v3zM20.5 19l-1.5-3h-1v7h1v-5l1 2h1l1-2v5h1v-7h-1l-1.5 3z"></path>
</symbol>
<symbol id="icon-arrow-back-outline" viewBox="0 0 24 24">
<path d="M19.164 19.547c-1.641-2.5-3.669-3.285-6.164-3.484v1.437c0 0.534-0.208 1.036-0.586 1.414-0.756 0.756-2.077 0.751-2.823 0.005l-6.293-6.207c-0.191-0.189-0.298-0.444-0.298-0.713s0.107-0.524 0.298-0.712l6.288-6.203c0.754-0.755 2.073-0.756 2.829 0.001 0.377 0.378 0.585 0.88 0.585 1.414v1.704c4.619 0.933 8 4.997 8 9.796v1c0 0.442-0.29 0.832-0.714 0.958-0.095 0.027-0.19 0.042-0.286 0.042-0.331 0-0.646-0.165-0.836-0.452zM12.023 14.011c2.207 0.056 4.638 0.394 6.758 2.121-0.768-3.216-3.477-5.702-6.893-6.080-0.504-0.056-0.888-0.052-0.888-0.052v-3.497l-5.576 5.496 5.576 5.5v-3.499c0 0 0.738 0.010 1.023 0.011z"></path>
</symbol>
<symbol id="icon-telegram" viewBox="0 0 28 28">
<path d="M18.578 20.422l2.297-10.828c0.203-0.953-0.344-1.328-0.969-1.094l-13.5 5.203c-0.922 0.359-0.906 0.875-0.156 1.109l3.453 1.078 8.016-5.047c0.375-0.25 0.719-0.109 0.438 0.141l-6.484 5.859-0.25 3.563c0.359 0 0.516-0.156 0.703-0.344l1.687-1.625 3.5 2.578c0.641 0.359 1.094 0.172 1.266-0.594zM28 14c0 7.734-6.266 14-14 14s-14-6.266-14-14 6.266-14 14-14 14 6.266 14 14z"></path>
</symbol>
<symbol id="icon-linkedin2" viewBox="0 0 32 32">
<path d="M12 12h5.535v2.837h0.079c0.77-1.381 2.655-2.837 5.464-2.837 5.842 0 6.922 3.637 6.922 8.367v9.633h-5.769v-8.54c0-2.037-0.042-4.657-3.001-4.657-3.005 0-3.463 2.218-3.463 4.509v8.688h-5.767v-18z"></path>
<path d="M2 12h6v18h-6v-18z"></path>
<path d="M8 7c0 1.657-1.343 3-3 3s-3-1.343-3-3c0-1.657 1.343-3 3-3s3 1.343 3 3z"></path>
</symbol>
<symbol id="icon-html-five2" viewBox="0 0 32 32">
<path d="M1.892 0l2.567 28.801 11.524 3.199 11.554-3.204 2.572-28.796h-28.216zM25.336 26.963l-9.288 2.574v0.015l-0.024-0.007-0.024 0.007v-0.015l-9.288-2.574-2.195-24.609h23.015l-2.195 24.609zM20.336 16.569l-0.408 4.58-3.944 1.065-3.933-1.060-0.252-2.82h-3.547l0.495 5.547 7.252 2.006 7.229-2.006 0.97-10.844h-12.874l-0.322-3.617h13.517l0.316-3.532h-17.694l0.953 10.681z"></path>
</symbol>
<symbol id="icon-vitejs" viewBox="0 0 256 257"><defs><linearGradient id="logosVitejs0" x1="-.828%" x2="57.636%" y1="7.652%" y2="78.411%"><stop offset="0%" stop-color="#41d1ff"/><stop offset="100%" stop-color="#bd34fe"/></linearGradient><linearGradient id="logosVitejs1" x1="43.376%" x2="50.316%" y1="2.242%" y2="89.03%"><stop offset="0%" stop-color="#ffea83"/><stop offset="8.333%" stop-color="#ffdd35"/><stop offset="100%" stop-color="#ffa800"/></linearGradient></defs><path fill="url(#logosVitejs0)" d="M255.153 37.938L134.897 252.976c-2.483 4.44-8.862 4.466-11.382.048L.875 37.958c-2.746-4.814 1.371-10.646 6.827-9.67l120.385 21.517a6.537 6.537 0 0 0 2.322-.004l117.867-21.483c5.438-.991 9.574 4.796 6.877 9.62"/><path fill="url(#logosVitejs1)" d="M185.432.063L96.44 17.501a3.268 3.268 0 0 0-2.634 3.014l-5.474 92.456a3.268 3.268 0 0 0 3.997 3.378l24.777-5.718c2.318-.535 4.413 1.507 3.936 3.838l-7.361 36.047c-.495 2.426 1.782 4.5 4.151 3.78l15.304-4.649c2.372-.72 4.652 1.36 4.15 3.788l-11.698 56.621c-.732 3.542 3.979 5.473 5.943 2.437l1.313-2.028l72.516-144.72c1.215-2.423-.88-5.186-3.54-4.672l-25.505 4.922c-2.396.462-4.435-1.77-3.759-4.114l16.646-57.705c.677-2.35-1.37-4.583-3.769-4.113"/></symbol>
<symbol id="icon-axios" viewBox="0 0 512 75"><path fill="#5a29e4" d="M254.114 9.182v60.165l-6.557 5.282v-50.05h-12.343zM481.537 0c5.492 0 10.59.828 15.297 2.484c4.528 1.564 8.433 3.323 11.717 5.275l.573.347l-6.799 12.943c-.62-.507-1.496-1.088-2.627-1.741l-.643-.364l-.693-.378l-.743-.393c-2.092-1.133-4.576-2.092-7.453-2.876a30.487 30.487 0 0 0-8.89-1.308c-8.193 0-12.29 2.31-12.29 6.93c0 2.701 1.482 4.619 4.445 5.752l.676.245l.717.249l.76.253l.804.256l.846.261l.888.265c.152.045.305.09.46.134l.953.27l.995.276l1.038.278l1.08.283l1.124.287l1.765.438l1.23.297c5.142 1.307 9.588 2.789 13.336 4.445c3.675 1.587 6.51 3.694 8.504 6.322l.255.346c2.092 2.702 3.138 6.275 3.138 10.72c0 5.404-1.395 9.762-4.184 13.075c-2.702 3.224-6.275 5.578-10.72 7.06c-4.446 1.394-9.24 2.091-14.382 2.091c-5.927 0-11.81-.828-17.65-2.484c-5.562-1.577-10.53-3.707-14.906-6.391l-.652-.407l7.06-13.728c1.133 1.133 3.007 2.397 5.622 3.791c2.702 1.395 5.84 2.572 9.413 3.53c3.574.96 7.365 1.439 11.375 1.439c8.018 0 12.028-2.136 12.028-6.407c0-2.876-1.874-4.924-5.622-6.144l-.901-.317l-.947-.321l-.991-.326l-1.037-.332l-1.082-.336l-1.127-.342l-.58-.172l-1.195-.349l-1.24-.354l-1.286-.359l-1.33-.364l-2.08-.555l-.716-.188c-7.496-1.917-13.074-4.358-16.735-7.321c-3.574-3.051-5.36-7.41-5.36-13.075c0-5.055 1.263-9.282 3.79-12.681c2.616-3.4 6.102-5.971 10.46-7.714C471.47.872 476.308 0 481.537 0M360.292.13c5.531 0 10.581 1.008 15.146 3.023l.545.246c4.707 2.092 8.716 4.925 12.028 8.498c3.4 3.487 6.012 7.453 7.842 11.898c1.83 4.445 2.748 8.977 2.748 13.597c0 4.794-.958 9.413-2.876 13.859c-1.917 4.358-4.622 8.28-8.109 11.766c-3.399 3.4-7.449 6.101-12.156 8.106c-4.706 2.005-9.849 3.007-15.427 3.007c-5.753 0-10.982-1.002-15.689-3.007c-4.707-2.092-8.762-4.88-12.162-8.367c-3.399-3.574-6.014-7.583-7.844-12.028c-1.828-4.446-2.746-9.022-2.746-13.728c0-4.794.96-9.414 2.877-13.859a36.412 36.412 0 0 1 7.638-11.3l.47-.467c3.487-3.486 7.58-6.232 12.287-8.236c4.707-2.005 9.85-3.007 15.428-3.007M44.844.524l31.77 73.084H59.88L52.558 56.48H24.187l-7.321 17.127H0L31.9.523zm93.58 0L158.56 26.41L178.693.523h17.127l-28.894 37l27.979 36.084h-17.127l-19.22-24.84l-19.087 24.84h-17.389l28.11-36.084l-29.025-37zM266.106.188v48.905h12.689L259.56 64.877V4.744zm93.928 14.063c-4.794 0-8.893 1.133-12.292 3.399c-3.313 2.266-5.84 5.142-7.583 8.629c-1.744 3.486-2.615 7.104-2.615 10.852c0 3.922.918 7.67 2.748 11.243c1.828 3.487 4.399 6.32 7.711 8.498c3.4 2.18 7.452 3.269 12.159 3.269c4.794 0 8.847-1.133 12.159-3.4c3.315-2.353 5.84-5.273 7.583-8.76c1.743-3.573 2.617-7.233 2.617-10.981c0-3.922-.915-7.627-2.745-11.113c-1.83-3.487-4.445-6.276-7.847-8.368c-3.313-2.179-7.276-3.268-11.895-3.268M38.438 19.74L27.717 42.753h21.05z"/></symbol>
<symbol id="icon-nodemon" viewBox="0 0 256 292"><path fill="#76d04b" d="M120.947 289.19a13.76 13.76 0 0 0 13.77 0l114.08-65.83a13.77 13.77 0 0 0 6.893-11.935V79.664a13.79 13.79 0 0 0-6.886-11.934L134.724 1.846a13.79 13.79 0 0 0-13.785 0L6.889 67.73A13.786 13.786 0 0 0 0 79.664v131.77c0 4.918 2.627 9.465 6.892 11.925l114.054 65.83"/><path fill="#4f4d3f" d="m201.701 114.111l-5.087-2.928c7.823-11.539 12.498-28.888 6.636-54.825c0 0-13.202 36.999-39.74 35.773L132.437 74.25a8.1 8.1 0 0 0-3.813-1.109h-.717a8.23 8.23 0 0 0-3.824 1.109L93.006 92.13c-26.535 1.23-39.74-35.773-39.74-35.773c-5.866 25.936-1.183 43.285 6.638 54.825l-5.087 2.929a8.385 8.385 0 0 0-4.19 7.271l.153 107.332c0 1.498.775 2.885 2.09 3.614a4 4 0 0 0 4.155 0l41.164-23.572c2.605-1.547 4.189-4.276 4.189-7.26v-50.142c0-2.99 1.584-5.762 4.177-7.243l17.529-10.094a8.268 8.268 0 0 1 4.193-1.13a8.16 8.16 0 0 1 4.162 1.129l17.523 10.094a8.333 8.333 0 0 1 4.183 7.242v50.143c0 2.983 1.605 5.733 4.194 7.26l41.154 23.57a4.06 4.06 0 0 0 4.184 0a4.17 4.17 0 0 0 2.077-3.614l.134-107.332c-.003-3.018-1.586-5.784-4.186-7.27z"/></symbol>
<symbol id="icon-jwt" viewBox="0 0 256 257"><path fill="#fff" d="M147.386 69.071L147.129 0h-38.515l.257 69.071l19.257 26.448zm-38.515 118.371v69.328h38.515v-69.328l-19.258-26.447z"/><path fill="#00f2e6" d="m147.386 187.442l40.57 55.976l31.069-22.596l-40.57-55.975l-31.069-10.015zM108.871 69.071L68.044 13.095L36.975 35.691l40.57 55.976l31.326 10.014z"/><path fill="#00b9f1" d="M77.545 91.667L11.811 70.355L0 106.816l65.733 21.569l31.069-10.271zm81.653 46.732l19.257 26.448l65.734 21.311L256 149.697l-65.733-21.312z"/><path fill="#d63aff" d="M190.267 128.385L256 106.816l-11.811-36.461l-65.734 21.312l-19.257 26.447zm-124.534 0L0 149.697l11.811 36.461l65.734-21.311l19.257-26.448z"/><path fill="#fb015b" d="m77.545 164.847l-40.57 55.975l31.069 22.596l40.827-55.976v-32.61zm100.91-73.18l40.57-55.976l-31.069-22.596l-40.57 55.976v32.61z"/></symbol>
</defs>
</svg>
