<svg aria-hidden="true" style="position: absolute; width: 0; height: 0; overflow: hidden;" version="1.1" xmlns="http://www.w3.org/2000/svg" xmlns:xlink="http://www.w3.org/1999/xlink">
<defs>
<symbol id="icon-Vector-3" viewBox="0 0 26 32">
<title>Vector-3</title>
<path d="M13.717 0.822c-0.269-0.188-0.589-0.289-0.917-0.289s-0.648 0.101-0.917 0.289c-2.062 1.519-3.948 3.263-5.624 5.2-3.745 4.301-5.725 8.86-5.725 13.177 0 3.253 1.292 6.373 3.593 8.674s5.421 3.593 8.674 3.593 6.373-1.292 8.674-3.593c2.3-2.3 3.593-5.42 3.593-8.674 0-10.315-10.885-18.053-11.349-18.377zM12.8 28.266c-2.404-0.003-4.709-0.959-6.408-2.658s-2.656-4.004-2.658-6.408c0-4.441 2.667-8.449 4.893-11.028 1.271-1.46 2.668-2.807 4.173-4.024 1.506 1.217 2.902 2.564 4.173 4.024 2.227 2.579 4.893 6.587 4.893 11.028-0.003 2.404-0.959 4.709-2.658 6.408s-4.005 2.656-6.408 2.658zM19.416 21.28c-0.335 1.065-0.922 2.033-1.711 2.822s-1.757 1.376-2.822 1.711c-0.155 0.048-0.317 0.073-0.48 0.073-0.382 0-0.752-0.137-1.043-0.386s-0.482-0.594-0.54-0.972c-0.058-0.378 0.021-0.764 0.224-1.089s0.514-0.566 0.879-0.681c0.574-0.18 1.096-0.496 1.521-0.922s0.742-0.947 0.922-1.521c0.063-0.2 0.165-0.387 0.3-0.548s0.3-0.294 0.487-0.391c0.376-0.196 0.815-0.235 1.22-0.108 0.201 0.063 0.387 0.165 0.548 0.3s0.294 0.3 0.391 0.487c0.097 0.186 0.157 0.39 0.175 0.599s-0.004 0.42-0.067 0.621l-0.003 0.003z"></path>
</symbol>
<symbol id="icon-Vector-2" viewBox="0 0 32 32">
<title>Vector-2</title>
<path stroke-linejoin="round" stroke-linecap="round" stroke-miterlimit="4" stroke-width="3.3684" d="M5.053 1.684h6.737l3.368 8.421-4.211 2.526c1.804 3.657 4.764 6.617 8.421 8.421l2.526-4.211 8.421 3.368v6.737c0 0.893-0.355 1.75-0.987 2.382s-1.488 0.987-2.382 0.987c-6.57-0.399-12.766-3.189-17.42-7.843s-7.444-10.85-7.843-17.42c0-0.893 0.355-1.75 0.987-2.382s1.488-0.987 2.382-0.987z"></path>
</symbol>
<symbol id="icon-Vector-4" viewBox="0 0 32 32">
<title>Vector-4</title>
<path d="M31.74 8.875c-0.092-0.13-0.213-0.237-0.355-0.31s-0.298-0.112-0.458-0.112h-21.223l-1.607-5.54c-0.63-2.182-2.127-2.417-2.741-2.417h-4.284c-0.549 0-0.993 0.445-0.993 0.993s0.445 0.993 0.993 0.993h4.283c0.136 0 0.549 0 0.831 0.974l5.527 20.31c0.12 0.429 0.511 0.725 0.956 0.725h13.499c0.419 0 0.793-0.263 0.935-0.657l4.758-14.053c0.109-0.305 0.064-0.643-0.122-0.907v0zM25.47 22.506h-12.046l-3.161-12.066h19.253l-4.045 12.066zM23.5 26.504c-1.381 0-2.5 1.119-2.5 2.5s1.119 2.5 2.5 2.5c1.381 0 2.5-1.119 2.5-2.5s-1.119-2.5-2.5-2.5zM14.5 26.504c-1.381 0-2.5 1.119-2.5 2.5s1.119 2.5 2.5 2.5c1.381 0 2.5-1.119 2.5-2.5s-1.119-2.5-2.5-2.5z"></path>
</symbol>
<symbol id="icon-fluent_tent-28-regular" viewBox="0 0 32 32">
<title>fluent_tent-28-regular</title>
<path d="M16.687 3.67c-0.080-0.096-0.181-0.174-0.295-0.227s-0.238-0.081-0.363-0.081c-0.126 0-0.25 0.028-0.363 0.081s-0.214 0.131-0.295 0.227c-2.051 2.462-6.099 5.383-8.427 6.683-0.116 0.065-0.215 0.155-0.29 0.265s-0.123 0.235-0.141 0.366l-1.872 13.587h-1.497c-0.227 0-0.445 0.090-0.606 0.251s-0.251 0.379-0.251 0.606 0.090 0.445 0.251 0.606c0.161 0.161 0.379 0.251 0.606 0.251h25.714c0.227 0 0.445-0.090 0.606-0.251s0.251-0.379 0.251-0.606-0.090-0.445-0.251-0.606c-0.161-0.161-0.379-0.251-0.606-0.251h-1.44l-1.872-13.589c-0.018-0.131-0.067-0.257-0.142-0.366s-0.174-0.2-0.29-0.265c-2.327-1.301-6.375-4.221-8.426-6.682zM22.329 24.552c-2.326-3.287-3.979-6.488-5.503-12.338-0.048-0.184-0.155-0.346-0.306-0.462s-0.335-0.179-0.525-0.178c-0.19 0-0.374 0.064-0.524 0.18s-0.257 0.279-0.305 0.463c-1.687 6.575-3.683 9.85-5.522 12.336h-3.271l1.779-12.918c2.233-1.305 5.669-3.781 7.874-6.127 2.209 2.346 5.642 4.823 7.877 6.127l1.779 12.918h-3.354zM20.249 24.552h-8.497c1.434-2.088 2.914-4.77 4.248-9.001 1.207 3.819 2.553 6.462 4.248 9.001z"></path>
</symbol>
<symbol id="icon-Vector-1" viewBox="0 0 32 32">
<title>Vector-1</title>
<path stroke-linejoin="round" stroke-linecap="round" stroke-miterlimit="4" stroke-width="2.9091" d="M5.818 10.182l8.727 8.727M4.364 18.909l8.727-8.727 2.909-4.364M1.455 5.818h17.455M8.727 1.455h1.455M30.545 30.545l-7.273-14.545-7.273 14.545M18.909 24.727h8.727"></path>
</symbol>
</defs>
</svg>
