<svg aria-hidden="true" style="position: absolute; width: 0; height: 0; overflow: hidden;" version="1.1" xmlns="http://www.w3.org/2000/svg" xmlns:xlink="http://www.w3.org/1999/xlink">
<defs>
<symbol id="icon-link" viewBox="0 0 32 32">
<path d="M15.55 6.55l2.5-2.5c1.267-1.267 3.017-2.050 4.95-2.050 3.866 0 7 3.134 7 7 0 1.933-0.784 3.683-2.050 4.95l-5 5c-1.267 1.267-3.017 2.050-4.95 2.050s-3.683-0.784-4.95-2.050v0c-0.25-0.267-0.403-0.627-0.403-1.023 0-0.414 0.168-0.789 0.439-1.061v0c0.271-0.271 0.646-0.439 1.061-0.439 0.396 0 0.756 0.153 1.024 0.404l-0.001-0.001c0.724 0.725 1.725 1.173 2.83 1.173s2.106-0.448 2.83-1.173l5-5c0.675-0.715 1.090-1.682 1.090-2.746 0-2.211-1.793-4.004-4.004-4.004-1.064 0-2.031 0.415-2.748 1.092l0.002-0.002-2.5 2.5c-0.267 0.25-0.627 0.403-1.023 0.403-0.414 0-0.789-0.168-1.061-0.439v0c-0.271-0.271-0.439-0.646-0.439-1.061 0-0.396 0.153-0.756 0.404-1.024l-0.001 0.001zM6.17 25.83c0.724 0.725 1.725 1.173 2.83 1.173s2.106-0.448 2.83-1.173l2.5-2.5c0.267-0.25 0.627-0.403 1.023-0.403 0.414 0 0.789 0.168 1.061 0.439v0c0.271 0.271 0.439 0.646 0.439 1.061 0 0.396-0.153 0.756-0.404 1.024l0.001-0.001-2.5 2.5c-1.267 1.267-3.017 2.050-4.95 2.050-3.866 0-7-3.134-7-7 0-1.933 0.784-3.683 2.050-4.95l5-5c1.267-1.267 3.017-2.050 4.95-2.050s3.683 0.784 4.95 2.050v0c0.25 0.267 0.403 0.627 0.403 1.023 0 0.414-0.168 0.789-0.439 1.061v0c-0.271 0.271-0.646 0.439-1.061 0.439-0.396 0-0.756-0.153-1.024-0.404l0.001 0.001c-0.724-0.725-1.725-1.173-2.83-1.173s-2.106 0.448-2.83 1.173l-5 5c-0.725 0.724-1.173 1.725-1.173 2.83s0.448 2.106 1.173 2.83l0 0z"></path>
</symbol>
<symbol id="icon-expand" viewBox="0 0 32 32">
<title>expand</title>
<path d="M0 10.656v-8.719c0-0.935 0.764-1.688 1.714-1.688h8.857c0.472 0 0.857 0.38 0.857 0.844v2.813c0 0.464-0.386 0.844-0.857 0.844h-6v5.906c0 0.464-0.386 0.844-0.857 0.844h-2.857c-0.471 0-0.857-0.38-0.857-0.844zM20.571 1.094v2.813c0 0.464 0.386 0.844 0.857 0.844h6v5.906c0 0.464 0.386 0.844 0.857 0.844h2.857c0.471 0 0.857-0.38 0.857-0.844v-8.719c0-0.935-0.764-1.688-1.714-1.688h-8.857c-0.471 0-0.857 0.38-0.857 0.844zM31.143 20.5h-2.857c-0.471 0-0.857 0.38-0.857 0.844v5.906h-6c-0.471 0-0.857 0.38-0.857 0.844v2.812c0 0.464 0.386 0.844 0.857 0.844h8.857c0.95 0 1.714-0.752 1.714-1.688v-8.719c0-0.464-0.386-0.844-0.857-0.844zM11.429 30.906v-2.812c0-0.464-0.386-0.844-0.857-0.844h-6v-5.906c0-0.464-0.386-0.844-0.857-0.844h-2.857c-0.471 0-0.857 0.38-0.857 0.844v8.719c0 0.935 0.764 1.688 1.714 1.688h8.857c0.472 0 0.857-0.38 0.857-0.844z"></path>
</symbol>
<symbol id="icon-close" viewBox="0 0 28 32">
<title>close</title>
<path d="M0.5 3.5c0-0.796 0.316-1.559 0.879-2.121s1.326-0.879 2.121-0.879h21c0.796 0 1.559 0.316 2.121 0.879s0.879 1.326 0.879 2.121v21c0 0.796-0.316 1.559-0.879 2.121s-1.326 0.879-2.121 0.879h-21c-0.796 0-1.559-0.316-2.121-0.879s-0.879-1.326-0.879-2.121v-21zM24.5 3.5h-21v21h21v-21zM8.696 8.696c0.139-0.139 0.305-0.25 0.487-0.326s0.377-0.114 0.574-0.114c0.197 0 0.392 0.039 0.574 0.114s0.348 0.186 0.487 0.326l3.181 3.183 3.182-3.183c0.139-0.139 0.305-0.25 0.487-0.325s0.377-0.114 0.574-0.114c0.197 0 0.392 0.039 0.574 0.114s0.348 0.186 0.487 0.325c0.139 0.139 0.25 0.305 0.325 0.487s0.114 0.377 0.114 0.574-0.039 0.392-0.114 0.574c-0.075 0.182-0.186 0.348-0.325 0.487l-3.183 3.181 3.183 3.182c0.282 0.282 0.44 0.663 0.44 1.061s-0.158 0.78-0.44 1.061-0.663 0.44-1.061 0.44c-0.398 0-0.78-0.158-1.061-0.44l-3.181-3.183-3.181 3.183c-0.139 0.139-0.305 0.25-0.487 0.325s-0.377 0.114-0.574 0.114-0.392-0.039-0.574-0.114c-0.182-0.075-0.348-0.186-0.487-0.325s-0.25-0.305-0.325-0.487c-0.075-0.182-0.114-0.377-0.114-0.574s0.039-0.392 0.114-0.574 0.186-0.348 0.325-0.487l3.183-3.181-3.183-3.181c-0.139-0.139-0.25-0.305-0.326-0.487s-0.114-0.377-0.114-0.574c0-0.197 0.039-0.392 0.114-0.574s0.186-0.348 0.326-0.487z"></path>
</symbol>
<symbol id="icon-links" viewBox="0 0 32 32">
<title>link</title>
<path d="M17.333 4l4.391 4.391-9.333 9.333 1.885 1.885 9.333-9.333 4.391 4.391v-10.667h-10.667z"></path>
<path d="M25.333 25.333h-18.667v-18.667h9.333l-2.667-2.667h-6.667c-1.471 0-2.667 1.196-2.667 2.667v18.667c0 1.471 1.196 2.667 2.667 2.667h18.667c1.471 0 2.667-1.196 2.667-2.667v-6.667l-2.667-2.667v9.333z"></path>
</symbol>
<symbol id="icon-github" viewBox="0 0 32 32">
<path d="M16 0.396c-8.84 0-16 7.164-16 16 0 7.071 4.584 13.067 10.94 15.18 0.8 0.151 1.093-0.344 1.093-0.769 0-0.38-0.013-1.387-0.020-2.72-4.451 0.965-5.389-2.147-5.389-2.147-0.728-1.847-1.78-2.34-1.78-2.34-1.449-0.992 0.112-0.972 0.112-0.972 1.607 0.112 2.451 1.648 2.451 1.648 1.427 2.447 3.745 1.74 4.66 1.331 0.144-1.035 0.556-1.74 1.013-2.14-3.553-0.4-7.288-1.776-7.288-7.907 0-1.747 0.62-3.173 1.647-4.293-0.18-0.404-0.72-2.031 0.14-4.235 0 0 1.34-0.429 4.4 1.64 1.28-0.356 2.64-0.532 4-0.54 1.36 0.008 2.72 0.184 4 0.54 3.040-2.069 4.38-1.64 4.38-1.64 0.86 2.204 0.32 3.831 0.16 4.235 1.020 1.12 1.64 2.547 1.64 4.293 0 6.147-3.74 7.5-7.3 7.893 0.56 0.48 1.080 1.461 1.080 2.96 0 2.141-0.020 3.861-0.020 4.381 0 0.42 0.28 0.92 1.1 0.76 6.401-2.099 10.981-8.099 10.981-15.159 0-8.836-7.164-16-16-16z"></path>
</symbol>
<symbol id="icon-gmail" viewBox="0 0 32 32">
<path fill="#d14836" style="fill: var(--color20, #d14836)" d="M32 6v20c0 1.133-0.867 2-2 2h-2v-18.151l-12 8.617-12-8.617v18.151h-2c-1.135 0-2-0.867-2-2v-20c0-0.567 0.216-1.067 0.575-1.424 0.359-0.363 0.86-0.576 1.425-0.576h0.667l13.333 9.667 13.333-9.667h0.667c0.567 0 1.067 0.216 1.425 0.576 0.36 0.357 0.575 0.857 0.575 1.424z"></path>
</symbol>
<symbol id="icon-github1" viewBox="0 0 32 32">
<path d="M16 0.396c-8.84 0-16 7.164-16 16 0 7.071 4.584 13.067 10.94 15.18 0.8 0.151 1.093-0.344 1.093-0.769 0-0.38-0.013-1.387-0.020-2.72-4.451 0.965-5.389-2.147-5.389-2.147-0.728-1.847-1.78-2.34-1.78-2.34-1.449-0.992 0.112-0.972 0.112-0.972 1.607 0.112 2.451 1.648 2.451 1.648 1.427 2.447 3.745 1.74 4.66 1.331 0.144-1.035 0.556-1.74 1.013-2.14-3.553-0.4-7.288-1.776-7.288-7.907 0-1.747 0.62-3.173 1.647-4.293-0.18-0.404-0.72-2.031 0.14-4.235 0 0 1.34-0.429 4.4 1.64 1.28-0.356 2.64-0.532 4-0.54 1.36 0.008 2.72 0.184 4 0.54 3.040-2.069 4.38-1.64 4.38-1.64 0.86 2.204 0.32 3.831 0.16 4.235 1.020 1.12 1.64 2.547 1.64 4.293 0 6.147-3.74 7.5-7.3 7.893 0.56 0.48 1.080 1.461 1.080 2.96 0 2.141-0.020 3.861-0.020 4.381 0 0.42 0.28 0.92 1.1 0.76 6.401-2.099 10.981-8.099 10.981-15.159 0-8.836-7.164-16-16-16z"></path>
</symbol>

<symbol id="icon-arrow-back-outline" viewBox="0 0 24 24">
<path d="M19.164 19.547c-1.641-2.5-3.669-3.285-6.164-3.484v1.437c0 0.534-0.208 1.036-0.586 1.414-0.756 0.756-2.077 0.751-2.823 0.005l-6.293-6.207c-0.191-0.189-0.298-0.444-0.298-0.713s0.107-0.524 0.298-0.712l6.288-6.203c0.754-0.755 2.073-0.756 2.829 0.001 0.377 0.378 0.585 0.88 0.585 1.414v1.704c4.619 0.933 8 4.997 8 9.796v1c0 0.442-0.29 0.832-0.714 0.958-0.095 0.027-0.19 0.042-0.286 0.042-0.331 0-0.646-0.165-0.836-0.452zM12.023 14.011c2.207 0.056 4.638 0.394 6.758 2.121-0.768-3.216-3.477-5.702-6.893-6.080-0.504-0.056-0.888-0.052-0.888-0.052v-3.497l-5.576 5.496 5.576 5.5v-3.499c0 0 0.738 0.010 1.023 0.011z"></path>
</symbol>
<symbol id="icon-telegram" viewBox="0 0 28 28">
<path d="M18.578 20.422l2.297-10.828c0.203-0.953-0.344-1.328-0.969-1.094l-13.5 5.203c-0.922 0.359-0.906 0.875-0.156 1.109l3.453 1.078 8.016-5.047c0.375-0.25 0.719-0.109 0.438 0.141l-6.484 5.859-0.25 3.563c0.359 0 0.516-0.156 0.703-0.344l1.687-1.625 3.5 2.578c0.641 0.359 1.094 0.172 1.266-0.594zM28 14c0 7.734-6.266 14-14 14s-14-6.266-14-14 6.266-14 14-14 14 6.266 14 14z"></path>
</symbol>
<symbol id="icon-linkedin2" viewBox="0 0 32 32">
<path d="M12 12h5.535v2.837h0.079c0.77-1.381 2.655-2.837 5.464-2.837 5.842 0 6.922 3.637 6.922 8.367v9.633h-5.769v-8.54c0-2.037-0.042-4.657-3.001-4.657-3.005 0-3.463 2.218-3.463 4.509v8.688h-5.767v-18z"></path>
<path d="M2 12h6v18h-6v-18z"></path>
<path d="M8 7c0 1.657-1.343 3-3 3s-3-1.343-3-3c0-1.657 1.343-3 3-3s3 1.343 3 3z"></path>
</symbol>

</defs>
</svg>
