<svg aria-hidden="true" style="position: absolute; width: 0; height: 0; overflow: hidden;" version="1.1" xmlns="http://www.w3.org/2000/svg" xmlns:xlink="http://www.w3.org/1999/xlink">
<defs>
<symbol id="icon-expand" viewBox="0 0 32 32">
<title>expand</title>
<path d="M0 10.656v-8.719c0-0.935 0.764-1.688 1.714-1.688h8.857c0.472 0 0.857 0.38 0.857 0.844v2.813c0 0.464-0.386 0.844-0.857 0.844h-6v5.906c0 0.464-0.386 0.844-0.857 0.844h-2.857c-0.471 0-0.857-0.38-0.857-0.844zM20.571 1.094v2.813c0 0.464 0.386 0.844 0.857 0.844h6v5.906c0 0.464 0.386 0.844 0.857 0.844h2.857c0.471 0 0.857-0.38 0.857-0.844v-8.719c0-0.935-0.764-1.688-1.714-1.688h-8.857c-0.471 0-0.857 0.38-0.857 0.844zM31.143 20.5h-2.857c-0.471 0-0.857 0.38-0.857 0.844v5.906h-6c-0.471 0-0.857 0.38-0.857 0.844v2.812c0 0.464 0.386 0.844 0.857 0.844h8.857c0.95 0 1.714-0.752 1.714-1.688v-8.719c0-0.464-0.386-0.844-0.857-0.844zM11.429 30.906v-2.812c0-0.464-0.386-0.844-0.857-0.844h-6v-5.906c0-0.464-0.386-0.844-0.857-0.844h-2.857c-0.471 0-0.857 0.38-0.857 0.844v8.719c0 0.935 0.764 1.688 1.714 1.688h8.857c0.472 0 0.857-0.38 0.857-0.844z"></path>
</symbol>
<symbol id="icon-close" viewBox="0 0 28 32">
<title>close</title>
<path d="M0.5 3.5c0-0.796 0.316-1.559 0.879-2.121s1.326-0.879 2.121-0.879h21c0.796 0 1.559 0.316 2.121 0.879s0.879 1.326 0.879 2.121v21c0 0.796-0.316 1.559-0.879 2.121s-1.326 0.879-2.121 0.879h-21c-0.796 0-1.559-0.316-2.121-0.879s-0.879-1.326-0.879-2.121v-21zM24.5 3.5h-21v21h21v-21zM8.696 8.696c0.139-0.139 0.305-0.25 0.487-0.326s0.377-0.114 0.574-0.114c0.197 0 0.392 0.039 0.574 0.114s0.348 0.186 0.487 0.326l3.181 3.183 3.182-3.183c0.139-0.139 0.305-0.25 0.487-0.325s0.377-0.114 0.574-0.114c0.197 0 0.392 0.039 0.574 0.114s0.348 0.186 0.487 0.325c0.139 0.139 0.25 0.305 0.325 0.487s0.114 0.377 0.114 0.574-0.039 0.392-0.114 0.574c-0.075 0.182-0.186 0.348-0.325 0.487l-3.183 3.181 3.183 3.182c0.282 0.282 0.44 0.663 0.44 1.061s-0.158 0.78-0.44 1.061-0.663 0.44-1.061 0.44c-0.398 0-0.78-0.158-1.061-0.44l-3.181-3.183-3.181 3.183c-0.139 0.139-0.305 0.25-0.487 0.325s-0.377 0.114-0.574 0.114-0.392-0.039-0.574-0.114c-0.182-0.075-0.348-0.186-0.487-0.325s-0.25-0.305-0.325-0.487c-0.075-0.182-0.114-0.377-0.114-0.574s0.039-0.392 0.114-0.574 0.186-0.348 0.325-0.487l3.183-3.181-3.183-3.181c-0.139-0.139-0.25-0.305-0.326-0.487s-0.114-0.377-0.114-0.574c0-0.197 0.039-0.392 0.114-0.574s0.186-0.348 0.326-0.487z"></path>
</symbol>
<symbol id="icon-link" viewBox="0 0 32 32">
<title>link</title>
<path d="M17.333 4l4.391 4.391-9.333 9.333 1.885 1.885 9.333-9.333 4.391 4.391v-10.667h-10.667z"></path>
<path d="M25.333 25.333h-18.667v-18.667h9.333l-2.667-2.667h-6.667c-1.471 0-2.667 1.196-2.667 2.667v18.667c0 1.471 1.196 2.667 2.667 2.667h18.667c1.471 0 2.667-1.196 2.667-2.667v-6.667l-2.667-2.667v9.333z"></path>
</symbol>
</defs>
</svg>
